<?xml version="1.0" encoding="utf-8"?>
<!-- Generator: Adobe Illustrator 21.0.0, SVG Export Plug-In . SVG Version: 6.00 Build 0)  -->
<svg version="1.1" id="Layer_1" xmlns="http://www.w3.org/2000/svg" xmlns:xlink="http://www.w3.org/1999/xlink" x="0px" y="0px"
	 viewBox="0 0 528.3 694.4" style="enable-background:new 0 0 528.3 694.4;" xml:space="preserve">
<style type="text/css">
	.st0{fill:#231F20;}
	.st1{fill:none;stroke:#231F20;stroke-width:3;stroke-miterlimit:10;}
	.st2{fill:none;}
	.st3{fill:none;stroke:#231F20;stroke-miterlimit:10;}
	.st4{fill:#FFFFFF;}
	.st5{fill:#BE1E2D;}
	.st6{fill:#FFFFFF;stroke:#231F20;stroke-width:3;stroke-miterlimit:10;}
	.st7{fill:#CEA42B;}
	.st8{fill:#CEA42B;fill-opacity:0;}
	.st9{fill:#ECC11C;}
</style>
<title>hand</title>
<g id="Hand">
	<path class="st0" d="M340.6,568.5l-5.4-2.6c7.5-15.9,13.8-32.4,18.8-49.3c1.1-3.5,2.2-7.1,3.2-10.9c2.8-8.9,5.2-18,7.5-28
		c0.7-3,1.4-6.2,2-9.4c3.8-21.5,7.1-44.9,10.3-71.4c0.3-2.6,0.5-5.2,0.8-7.9c0.6-6.1,1.2-11.2,1.8-15.9c0.5-3.2,1-6.3,1.4-9.4
		c0.7-4.6,1.3-9.1,2-13.7c3.3-23,6.8-46.8,12.1-70.4l0.1-0.3c1.2-3.7,2.3-7.4,3.3-10.9c9.3-32.4,6.8-41.6,5.3-44
		c-0.4-0.7-1-1.2-1.8-1.3c0,0-3.3-0.4-10.9,16.7c-5.2,11.5-10.8,27.5-16.3,42.9c-13,36.5-21.4,59-29.9,63c-1.6,0.8-3.4,0.9-5.1,0.3
		c-14.5-5.4-10.1-51.5-3.5-106.6c1-8.4,1.9-15.7,2.4-21.2c1.5-17.4,1.7-34.8,0.7-52.2c-2.1-31-8.6-34.1-10.5-34.3
		c-0.2,0-0.7,0.3-0.8,0.4c-8.3,6.8-15.5,55.6-18.1,84.8v0.1c0,0.2-3.2,24.5-7.7,48.3c-2.6,14-5.1,25.2-7.5,33.2
		c-3.6,12.2-6.9,17.1-11.2,16.7l-2.4-0.2L270.7,224v-0.3c0-0.2,0.5-22.3-0.8-45.6c-2.2-40.1-7.6-50.7-10.7-53.4
		c-0.5-0.6-1.3-0.9-2.1-0.8c-2.3,0.3-10,4.9-13.3,51.1c-1.8,25.6-1.3,51.3-1.3,51.6v0.2l-4.5,89.7l-2,0.6c-1.4,0.4-2.9,0.2-4.1-0.6
		c-3.3-2.1-8-9.1-15.9-45.1c-4.2-19.6-7.4-38.6-7.4-38.8v-0.1c0-0.2-2.9-23.9-7.7-47.2c-9-43.7-16.3-45-17.1-45l0,0
		c-0.9,0-1.7,0.4-2.2,1.1c-8.4,8.8-6.5,52.2-5.5,75.6c0.3,6.2,0.5,11.6,0.5,15.4c0,5,0.8,16.6,1.7,31.2
		c4.8,74.6,8.5,148.5-3.6,160.8c-1.4,1.5-3.3,2.3-5.4,2.2l0.3-6c0.1,0,0.3,0,0.8-0.5c2.6-2.7,7-14.3,6.3-62.2
		c-0.4-31.5-2.8-67.6-4.5-94c-1-14.7-1.7-26.4-1.7-31.6c0-3.6-0.2-9-0.5-15.1c-0.5-12.7-1.3-30.1-0.7-45.2
		c0.7-18.8,3.2-29.9,7.9-34.8c1.7-1.8,4.1-2.9,6.6-2.9l0,0c8.8,0,15.8,15.4,23,49.8c4.7,23,7.6,46.2,7.8,47.6
		c0.2,1.2,3.2,19.8,7.4,38.8c4.8,22,8.3,32.2,10.5,37l4-80.7c0-1.9-0.5-26.9,1.3-52c3.5-48.9,12.2-55.8,18.5-56.6
		c2.5-0.3,5.1,0.5,6.9,2.3c15,13.5,13.7,93.3,13.5,103.5l9.3,81.7c2.3-5.2,6-17,10.8-43.8c4-22.1,6.9-43.9,7.1-45.1
		c0.7-8.3,7.4-78.2,20.2-88.8c1.4-1.3,3.3-1.9,5.3-1.8c8.9,0.9,14.1,13.9,15.9,39.8c1.1,17.7,0.8,35.5-0.7,53.2
		c-0.5,5.6-1.4,12.9-2.4,21.3c-2.3,19.5-5.2,43.7-6,64c-1,30.4,3.6,35.5,5.6,36.2c0.2,0,0.3,0,0.5-0.1c6.8-3.2,17.9-34.4,26.8-59.5
		c14.8-41.8,23.7-65.4,33.9-63.5c2.4,0.4,4.6,1.9,5.8,4c6.5,10.4-1.9,39.4-4.6,48.9c-1,3.5-2.1,7.2-3.3,10.9
		c-5.2,23.3-8.7,47-12,69.8c-0.7,4.6-1.3,9.1-2,13.7c-0.5,3.1-0.9,6.2-1.4,9.4c-0.6,4.7-1.2,9.7-1.8,15.7c-0.3,2.7-0.5,5.3-0.8,7.9
		c-3.1,26.7-6.5,50.2-10.3,71.9c-0.7,3.3-1.4,6.5-2.1,9.6c-2.3,10.2-4.8,19.5-7.6,28.4c-1,3.7-2.1,7.4-3.2,10.9
		C354.6,535.5,348.2,552.3,340.6,568.5z"/>
	<path class="st0" d="M334.4,694.3l-4.8-5.4c-7.6-8.4-31.1-4.7-53.9-1c-29.3,4.7-59.7,9.6-73.5-5.8l-0.8-0.9l0.1-1.2
		c0.4-8.2,1-16.6,1.6-24.8c3.1-45.6,6.3-92.8-14.8-99.1l1.7-5.8c25.7,7.7,22.5,55.1,19.1,105.3c-0.5,7.7-1.1,15.7-1.5,23.4
		c12.2,11.9,41.4,7.2,67.3,3c21.9-3.5,42.7-6.9,54.4-0.9c0.4-11.5,0.2-24.1,0-36.3c-0.4-29.2-0.9-59.3,6.1-78.7l5.6,2
		c-6.6,18.4-6.1,48-5.7,76.6c0.2,14.4,0.4,29.2-0.3,42.3L334.4,694.3z"/>
	<path class="st0" d="M174.8,156l-3-0.2c0-0.1,0.7-8.4,2-16.6c2.6-15.6,5.2-17.9,7.5-18.1s5.3,1.5,10.6,15.8
		c2.8,7.5,4.9,15.2,5,15.3l-2.9,0.8c-5.2-18.6-10.6-28.9-12.4-28.9C179.3,124.6,176.1,139.6,174.8,156z"/>
	<path class="st0" d="M247.7,136.3l-3-0.5c1.7-9.8,6.4-32.6,13-32.6h0c6.8,0.1,9.5,22.6,10.4,32.2l-3,0.3
		c-1.4-15.7-4.9-29.4-7.5-29.5l0,0c0,0-2.6,0.1-6.5,14.5C249.1,128.4,247.8,136.2,247.7,136.3z"/>
	<path class="st0" d="M338.5,150.4c-1.4-20.2-4.1-34-6-35.6c-1.8,1.1-7,11.7-12.8,32.2l-2.9-0.8c0-0.1,2.5-8.7,5.5-17.1
		c5.7-15.9,8.5-17.7,10.7-17.4s4.4,3,6.7,20.1c1.2,9.1,1.8,18.3,1.8,18.4L338.5,150.4z"/>
	<path class="st0" d="M409.7,236.2l-2.9-0.6c2.5-12.7,3.4-24.6,1.9-26.2c-2,0.1-8.1,8.8-13.2,18.8l-2.7-1.4
		c4.2-8.2,12-21.9,16.8-20.2C414.2,208.1,412.2,223.5,409.7,236.2z"/>
	<path class="st0" d="M295.7,569.1c-19.4-12.8-43.4-4-43.6-3.9l-2.1-5.6c1.1-0.4,27-10.1,49.1,4.5L295.7,569.1z"/>
	<path class="st0" d="M251.1,543.5l-2.9-0.9c11.8-36.6,9.3-72.2-6.9-100.1c-11.5-19.9-29.5-34.1-48.1-38l0.6-2.9
		c19.4,4.1,38.1,18.8,50.1,39.4C260.6,469.7,263.2,506.1,251.1,543.5z"/>
	<path class="st0" d="M349.2,498.7c-25.7-47.6-66.1-76.2-95.4-91.8c-31.8-16.9-57.9-22.6-58.2-22.7l0.6-2.9
		c0.3,0.1,26.7,5.8,58.9,22.9c29.7,15.8,70.6,44.7,96.8,93L349.2,498.7z"/>
	<path class="st0" d="M342.4,398.3c-19.8,0-43.4-7.5-66.5-14.9c-28.5-9.1-58.1-18.5-77.7-12.4l-0.9-2.9c20.5-6.4,49.1,2.8,79.5,12.4
		c34.1,10.9,69.4,22.1,90.3,8.5l1.6,2.5C361.4,396.4,352.4,398.3,342.4,398.3z"/>
	<path class="st0" d="M393.1,292.5c-6.4-5.5-13.2-10.5-20.2-15.1l2.2-3.4c7.2,4.7,14.1,9.8,20.6,15.4L393.1,292.5z"/>
	<path class="st0" d="M336.2,257.8c-10.4-3.6-24.3-6.2-31.6-7.4l0.5-3c7.4,1.3,21.5,3.9,32.1,7.5L336.2,257.8z"/>
	<path class="st0" d="M175.7,275.7l-1.6-2.6c12.9-7.8,26.7-14.2,41.1-19l0.9,2.9C202,261.7,188.4,268,175.7,275.7z"/>
	<path class="st0" d="M240.8,184.9L240,179c10.9-1.4,22-2.2,33-2.2v6C262.2,182.8,251.5,183.5,240.8,184.9z"/>
	<path class="st0" d="M173.7,203.7l-2.4-5.5c10.6-4.7,21.6-8.6,32.8-11.8l1.6,5.8C194.8,195.3,184.1,199.1,173.7,203.7z"/>
	<path class="st0" d="M340.8,190.1c-5.7-1.5-13.7-2.5-20.8-3.3c-3.4-0.4-6.5-0.8-9.4-1.2l0.9-5.9c2.8,0.4,5.9,0.8,9.2,1.2
		c7.2,0.9,15.4,1.9,21.5,3.5L340.8,190.1z"/>
	<path class="st0" d="M225.4,565.9c-4.3,0-17.3-0.9-37.7-9.9c-15.5-6.7-29.1-17.1-39.7-30.3c-1.5-1.9-2.9-3.8-4.3-5.8l-0.1-0.2
		c-1.7-3-3.4-6.2-5-9.7c-1.5-3.1-2.9-6.3-4.4-9.9l-0.1-0.3c-8.9-28.7-24.4-55.5-38.5-77.8c-1.7-2.6-3.6-5.4-5.6-8.1
		c-14.2-20.1-36.8-47.5-53.9-58.6l-3.7-2.4l3.5-2.6c13.5-9.7,30.7-10,49.5-0.8c15.2,7.5,28.6,20,35.2,29c1.6,2.2,3.4,4.9,5.3,7.7
		c8.9,13.4,22.4,33.6,36.5,34.4c16.3,0.9,18.9-5.2,18.9-5.3v0.1l5.7,1.8c-0.3,1.1-3.9,10.5-25,9.4c-17.1-0.9-31-21.8-41.1-37
		c-1.9-2.8-3.6-5.5-5.1-7.5c-12.5-17.4-46.8-43.2-72.6-29.3c17.2,12.8,38.3,38.4,51.8,57.6c2,2.8,3.9,5.6,5.7,8.3
		c14.3,22.7,30.1,49.9,39.2,79.2c1.4,3.4,2.8,6.5,4.2,9.5c1.6,3.3,3.1,6.3,4.8,9.2c1.3,1.9,2.6,3.7,4,5.4
		c9.9,12.5,22.8,22.3,37.4,28.6c23.4,10.2,36.2,9.3,36.4,9.3l0.5,6C226.9,565.8,226.4,565.9,225.4,565.9z"/>
	<path class="st0" d="M55.6,369c-0.1,0-7.3-4.2-14-9c-13-9-13.6-12.4-12.5-14.4c2.2-4.2,11.8-0.9,14.7,0.3l-1.1,2.8
		c-5-1.9-10.4-2.7-11-1.7c-0.3,2.3,11.5,11.3,25.4,19.4L55.6,369z"/>
	<path class="st0" d="M170.5,202.3l-0.1-2.8c0-0.1-0.3-15.4,0.7-30.7c2-29,7.1-33,10.7-33.4l0,0c6-0.7,11.6,7.5,17.6,26
		c4.2,12.7,7,25.8,7,25.9l0.4,1.7L170.5,202.3z M182.4,139.4c-0.5,0.1-5.3,1.5-7.2,29.7c-0.8,11.2-0.8,22.5-0.8,27.6l27.8-10.2
		C197.1,162.9,188.2,138.6,182.4,139.4L182.4,139.4z"/>
	<path class="st0" d="M238.4,182.4l0.1-2.2c0.2-5.2,2.4-50.9,13.1-59.7c1.5-1.3,3.5-1.9,5.4-1.6c6.7,1,11.6,11.3,15,31.2
		c1.5,9.3,2.5,18.8,3.1,28.2l0.1,2L238.4,182.4z M256.1,122.9c-0.7,0-1.4,0.3-1.9,0.8c-2.2,1.8-6.3,8.2-9.4,31
		c-1.3,9.9-2,19.4-2.2,23.5l28.4-1.6c-0.3-4.3-1.1-15-2.9-25.8c-4.1-24.2-9.5-27.6-11.7-27.9C256.3,122.8,256.2,122.8,256.1,122.9
		L256.1,122.9z"/>
	<path class="st0" d="M343.5,187.7l-34.4-5.9l0.3-1.9c0.6-4.6,6.4-45.1,16.4-51.9c1.4-1,3.1-1.4,4.8-1l0,0
		c6.6,1.6,10.6,11.8,12.3,31.2c0.7,9.1,1,18.2,0.7,27.2L343.5,187.7z M313.7,178.6l26,4.4c0.1-4.4,0.1-14.4-0.8-24.5
		c-2-23.4-7.1-27.1-9.2-27.6c-0.6-0.1-1.1,0-1.6,0.4C321.2,136,315.6,165.4,313.7,178.6L313.7,178.6z"/>
	<path class="st0" d="M395.1,292l-22.2-18.4l0.4-1.3c1.7-5,16.7-49.4,27.9-53.3c1.6-0.6,3.3-0.4,4.7,0.5c3.2,2.1,6.7,8.4-0.6,38.4
		c-3.9,15.9-9.2,31.3-9.2,31.4L395.1,292z M377.5,272.2l15.6,13c1.7-5.1,5.3-16.5,8.2-28.3c7-28.5,3.6-33.2,2.4-34
		c-0.4-0.2-0.8-0.3-1.2-0.1C395.6,225.1,383.8,253.8,377.5,272.2L377.5,272.2z"/>
	<path class="st0" d="M72.2,386.6l-36-35.3l1.9-1.4c0.9-0.7,23-16.3,57.7,6.7l2.7,1.8l-2.7,1.6c-9.3,6.1-17,14.4-22.3,24.2
		L72.2,386.6z M42.5,351.9L71.2,380c5.1-8.5,11.8-15.9,19.9-21.7C65.7,342.6,48.3,348.9,42.5,351.9z"/>
	<path class="st0" d="M256.1,218.4c-1.5,0.1-2.8-0.6-3.6-1.8c-2.7-4.1,1.2-13.8,2-15.7l1.3-3l1.4,3c0.9,1.9,5.3,11.4,2.7,15.6
		c-0.8,1.3-2.2,2-3.7,2L256.1,218.4z M255.9,205.4c-1.2,3.7-2,7.9-1,9.4c0.2,0.2,0.4,0.5,1.2,0.5s1-0.3,1.2-0.6
		C258.3,213.3,257.3,209.1,255.9,205.4z"/>
	<path class="st0" d="M254.1,245.8c-4.7,0.5-9.3,1.2-14,2l0.5,3c4.3-0.8,8.7-1.4,13.1-1.9C253.7,247.9,253.8,246.9,254.1,245.8z"/>
	<path class="st0" d="M259.5,245.3c0.2,1,0.4,2,0.5,3c4.8-0.4,9.7-0.5,14.6-0.5v-3C269.5,244.8,264.5,245,259.5,245.3z"/>
	<path class="st0" d="M256.9,254.5c-1.5,0.1-2.8-0.6-3.6-1.8c-2.8-4.1,1.2-13.8,2-15.7l1.3-3l1.4,3c0.9,1.9,5.3,11.5,2.7,15.6
		c-0.8,1.3-2.2,2-3.7,2L256.9,254.5z M256.8,241.6c-1.2,3.7-2,7.9-1,9.4c0.2,0.2,0.4,0.5,1.2,0.5s1-0.3,1.2-0.5
		C259.1,249.4,258.1,245.2,256.8,241.6L256.8,241.6z"/>
	<path class="st0" d="M257.7,290.6c-1.5,0.1-2.8-0.6-3.6-1.8c-2.7-4.1,1.2-13.8,2-15.7l1.3-3l1.4,3c0.9,1.9,5.3,11.5,2.7,15.6
		c-0.8,1.3-2.2,2-3.7,2L257.7,290.6z M257.5,277.7c-1.2,3.7-2,7.9-1,9.4c0.2,0.2,0.4,0.5,1.2,0.5s1-0.3,1.2-0.5
		C259.9,285.5,258.9,281.4,257.5,277.7z"/>
	<path class="st0" d="M315.7,238.1c-0.8,0-1.5-0.7-1.5-1.5c0-0.3,0.1-0.7,0.3-0.9l12.7-16.2l-13.9,1l18-21.7
		c0.6-0.6,1.5-0.7,2.1-0.1c0.6,0.5,0.7,1.4,0.2,2l-13.5,16.4l13.7-0.9l-16.8,21.5C316.6,237.9,316.2,238.1,315.7,238.1z"/>
	<path class="st0" d="M309.3,304.5c-0.8,0-1.5-0.7-1.5-1.5c0-0.3,0.1-0.7,0.3-0.9l12.7-16.2l-13.9,1l18-21.7
		c0.6-0.6,1.5-0.7,2.1-0.1c0.6,0.5,0.7,1.4,0.2,2l-13.5,16.4l13.7-1l-16.8,21.5C310.2,304.3,309.8,304.5,309.3,304.5z"/>
	<path class="st0" d="M283.8,442.3c-12.1-0.6-21.4-10.9-20.8-23c0.6-12.1,10.9-21.4,23-20.8c4.8,0.2,9.3,2,13,5.1
		c-9-13.2-27-16.6-40.2-7.6c-13.2,9-16.6,27-7.6,40.2c9,13.2,27,16.6,40.2,7.6c2.2-1.5,4.1-3.2,5.8-5.2
		C293.2,441.3,288.5,442.6,283.8,442.3z"/>
	<path class="st0" d="M275.1,393.9L275.1,393.9c0.5,0,0.9,0,1.4,0c2.6,0.1,5.1,0.6,7.5,1.5c-13.8,0.5-24.5,12.1-24,25.9
		c0.5,12,9.4,22,21.3,23.7c-2,0.5-4.1,0.8-6.2,0.8c-0.5,0-0.9,0-1.4,0c-14.3-0.7-25.4-12.8-24.7-27.2
		C249.7,404.7,261.2,393.9,275.1,393.9 M275.1,390.9c-16,0-28.9,13-28.9,29c0,15.4,12.1,28.1,27.4,28.9c0.5,0,1,0,1.5,0
		c8.5,0,16.5-3.8,22-10.2c-3.6,2.5-7.9,3.8-12.2,3.8c-0.4,0-0.8,0-1.2,0c-12.1-0.3-21.7-10.4-21.4-22.5
		c0.3-12.1,10.4-21.7,22.5-21.4l0,0c0.4,0,0.8,0,1.2,0c4.7,0.3,9.3,2.1,12.9,5.1c-5.1-7.5-13.3-12.2-22.4-12.6
		C276.1,390.9,275.6,390.9,275.1,390.9L275.1,390.9z"/>
	<path class="st0" d="M194.5,248.7H194c-7.5-0.1-14.5-3.3-19.6-8.8c-10.7-11.4-10.2-29.9,1-41.1c5.4-5.5,12.8-8.5,20.5-8.3
		c7.5,0.1,14.5,3.3,19.6,8.8c10.7,11.4,10.2,29.9-1,41.1C209.2,245.7,202,248.7,194.5,248.7z M195.4,195.5c-6.2,0-12.1,2.5-16.4,6.9
		c-9.4,9.3-9.8,24.6-0.9,34.1l0,0c4.1,4.5,9.9,7.1,16,7.2c6.3,0.1,12.4-2.4,16.8-6.9c9.4-9.3,9.8-24.6,0.9-34.1
		c-4.1-4.5-9.9-7.1-16-7.2L195.4,195.5z"/>
	<path class="st0" d="M144.2,292.2c-10.7,0-20.5-5.9-25.5-15.4c-7.8-14.7-2.7-32.9,11.6-41.4c13.7-8.1,31.4-3.5,39.5,10.2
		c0.2,0.4,0.5,0.8,0.7,1.2c7.8,14.7,2.7,32.9-11.6,41.4C154.5,290.8,149.4,292.2,144.2,292.2z M145,236.4c-4.3,0-8.5,1.2-12.1,3.3
		c-12,7.1-16.3,22.4-9.7,34.7c6.1,11.7,20.6,16.1,32.2,10c0.4-0.2,0.7-0.4,1-0.6c12-7.1,16.3-22.4,9.8-34.7
		C162,241.3,153.9,236.4,145,236.4L145,236.4z"/>
	<path class="st1" d="M151.5,213.2"/>
	<path class="st0" d="M137.4,197.7L137.4,197.7c0,0,0-0.1,0-0.1C137.4,197.6,137.4,197.6,137.4,197.7z"/>
	<line class="st2" x1="190.6" y1="213.4" x2="202.7" y2="304.8"/>
	<path class="st0" d="M200.2,285.6c0,0,1.3,3.7,2.5,8.2v-0.7l-1.5-11.4l-3-22.8l-3-22.8l-1.6-11.4c-0.9-3.8-1.9-7.5-3-11.2
		c-0.1,3.9,0,7.8,0,11.6l1.5,11.4l3,22.8l3,22.8l1.4,10.1C199.8,288.5,200.2,285.6,200.2,285.6z"/>
	<path class="st0" d="M202.9,309.9c-1,0-2-0.4-2.7-1.2c-3.9-4.2-2-20.1-1.6-23.3l0.8-6.2l2.1,5.9c1.6,4.5,6.5,19.5,3.8,23.5
		c-0.5,0.8-1.3,1.2-2.2,1.3L202.9,309.9L202.9,309.9z M203,306.9l0.1,1.5L203,306.9L203,306.9z M201,293.2c-0.3,5.9,0,11.8,1.5,13.5
		c0.1,0.2,0.3,0.3,0.5,0.3C203.8,305.8,202.9,300.1,201,293.2L201,293.2z"/>
	<path class="st0" d="M363.9,348.1c-0.6,0-1.3-0.2-1.8-0.5c-0.9-0.5-1.6-1.4-1.8-2.4c-0.9-3.9,3.5-10.5,8.7-18.3v-0.2
		c1.9-11.8,3.3-19.1,6.5-21.1c0.9-0.6,1.9-0.7,2.9-0.4l0,0c1.3,0.3,2.4,1.3,2.8,2.5c1.4,3.9-2.6,10.2-9.3,20.1l-0.1,0.2
		c-1.8,11.2-3.2,18.2-6.5,19.8C364.9,348,364.4,348.1,363.9,348.1z M367.7,334.2c-2.7,4.3-4.9,8.4-4.5,10.2c0,0.2,0.2,0.4,0.4,0.5
		c0.3,0.2,0.4,0.1,0.5,0.1C365.5,344.4,366.7,339.5,367.7,334.2L367.7,334.2z M377.3,308c-0.1,0-0.2,0-0.3,0.1
		c-1.7,1.1-3,6.8-4.1,12.7c3.3-5.1,6.1-10.1,5.4-12.1c0-0.1-0.2-0.5-0.9-0.7L377.3,308z"/>
	<path class="st0" d="M185.7,165.2c-0.1,0-0.2,0-0.3,0.1c-0.1,0.1-0.2,0.4,0,0.5c0.1,0.1,0.2,0.1,0.2,0.1c0.1,0,0.2,0,0.3-0.1
		c0.1-0.1,0.1-0.2,0.1-0.3C186.1,165.4,185.9,165.2,185.7,165.2z"/>
	<path class="st0" d="M182.2,137.4c-11,1.4-9.7,62.1-9.7,62.1l32.1-11.7C204.6,187.8,193.5,136,182.2,137.4z M185.7,168.2h-0.1
		c-1.5,0-2.6-1.3-2.6-2.7c0-1.5,1.3-2.6,2.7-2.6c1.5,0,2.6,1.3,2.6,2.7C188.2,167.1,187.1,168.2,185.7,168.2z"/>
	<path class="st0" d="M65.9,356.1c-0.1,0-0.2,0-0.3,0.1c-0.1,0.1-0.2,0.4,0,0.5c0.1,0.1,0.2,0.1,0.2,0.1c0.2,0,0.4-0.1,0.4-0.3
		c0,0,0,0,0,0C66.3,356.3,66.1,356.1,65.9,356.1z"/>
	<path class="st0" d="M39.3,351.5l32.4,31.7c5.5-10.1,13.4-18.7,23.1-25C60.8,335.8,39.3,351.5,39.3,351.5z M67.7,358.4
		c-0.5,0.4-1.1,0.7-1.8,0.7h-0.1c-1.5-0.1-2.6-1.3-2.5-2.8c0.1-1.5,1.3-2.6,2.8-2.5s2.6,1.3,2.5,2.8C68.5,357.3,68.2,358,67.7,358.4
		z"/>
	<path class="st0" d="M257.2,152.9L257.2,152.9c-0.2,0-0.4,0.2-0.4,0.4s0.2,0.4,0.4,0.4c0.2,0,0.4-0.2,0.4-0.4c0-0.1,0-0.2-0.1-0.2
		C257.4,153,257.3,152.9,257.2,152.9L257.2,152.9z"/>
	<path class="st0" d="M256.8,120.9c-13.7-2.1-16.2,59.4-16.2,59.4l32.6-1.9C273.1,178.5,270.5,123.1,256.8,120.9z M257.2,155.9h-0.1
		c-1.5,0-2.6-1.3-2.6-2.7s1.3-2.6,2.7-2.6c1.5,0,2.6,1.3,2.6,2.7C259.7,154.7,258.6,155.9,257.2,155.9z"/>
	<path class="st0" d="M328.5,159.3c-0.2,0-0.4,0.2-0.4,0.4c0,0.2,0.2,0.4,0.4,0.4c0.1,0,0.2,0,0.3-0.1c0.1-0.1,0.2-0.4,0-0.5
		C328.8,159.3,328.7,159.3,328.5,159.3L328.5,159.3z"/>
	<path class="st0" d="M330.1,129c-11.3-2.7-18.7,51.2-18.7,51.2l30.2,5.1C341.6,185.4,343.5,132.2,330.1,129z M328.5,162.3h-0.1
		c-1.5,0-2.6-1.3-2.6-2.7s1.3-2.6,2.7-2.6c1.5,0,2.6,1.3,2.6,2.7C331.1,161.1,329.9,162.2,328.5,162.3z"/>
	<path class="st0" d="M396.9,244.6L396.9,244.6c-0.2,0-0.4,0.2-0.4,0.4h0.7C397.3,244.7,397.1,244.6,396.9,244.6
		C396.9,244.5,396.9,244.5,396.9,244.6L396.9,244.6z"/>
	<path class="st0" d="M396.9,245.3c0.2,0,0.4-0.2,0.4-0.4h-0.7C396.6,245.1,396.7,245.3,396.9,245.3z"/>
	<path class="st0" d="M404.8,221.1c-10.2-6.6-29.6,51.7-29.6,51.7l18.9,15.7C394.1,288.6,415,227.7,404.8,221.1z M399.5,245.1
		c-0.1,1.4-1.2,2.5-2.6,2.5h-0.1c-1.5-0.1-2.6-1.3-2.5-2.8s1.3-2.6,2.8-2.5C398.5,242.4,399.6,243.7,399.5,245.1L399.5,245.1z"/>
	<path class="st0" d="M214.9,468.9c-2.2-5.4-8.4-8.1-13.8-5.9c-2.6,1.1-4.7,3.1-5.8,5.7l-2.1,4.9l-4.9-2.1
		c-5.4-2.3-11.6,0.2-13.9,5.6s0.2,11.6,5.6,13.9l24.4,10.6l0.2-0.5h0.1l4.9-11.6l3.3-7.6l0,0l2-4.9
		C215.9,474.5,216,471.5,214.9,468.9z"/>
	<path class="st0" d="M207.9,510.4l-30.5-13.2c-8.7-3.8-12.7-14-8.9-22.7c3.6-8.2,12.8-12.3,21.3-9.5c4.4-8.5,14.9-11.7,23.3-7.3
		c7.5,3.9,11.1,12.7,8.4,20.8l0,0l-0.4,1.3l-5.3,12.5l-7.4,17.8h-0.1L207.9,510.4z M184.2,466.7c-8.1,0-14.6,6.5-14.7,14.6
		c0,5.9,3.5,11.2,8.9,13.5l28.1,12.2l0.2-0.5h0.1l11.2-26.6l0.4-1.2c3.2-7.4-0.3-16-7.7-19.2c-7.4-3.2-16,0.3-19.2,7.7l-0.5,1.2
		l-1.2-0.5C188.1,467,186.1,466.7,184.2,466.7z M205.1,503.4l-25.6-11.1c-5.9-3.1-8.1-10.4-5-16.2c2.7-5.2,8.8-7.6,14.4-5.8l3.6,1.5
		l1.6-3.6c3.1-5.8,10.4-8.1,16.2-4.9c5.1,2.7,7.6,8.8,5.8,14.3l-1.5,3.6l0,0l-0.5,1.2l-3.3,7.6l-5.4,12.8h-0.1L205.1,503.4z
		 M184.2,472c-5.1,0-9.3,4.1-9.3,9.3c0,3.7,2.2,7.1,5.7,8.6l23.2,10.1l0.2-0.5h0.1l9.6-22.9c2-4.7-0.2-10.2-4.9-12.2
		c-4.7-2-10.2,0.2-12.2,4.9l0,0l-2.6,6.1l-6.1-2.6C186.7,472.2,185.4,472,184.2,472L184.2,472z"/>
	<polyline class="st0" points="296.7,500 300,489.2 302.3,500.3 	"/>
	<polygon class="st0" points="300.9,500.6 299.8,495.2 298.1,500.5 295.3,499.6 300.3,483.3 303.8,500 	"/>
	<polyline class="st0" points="302.3,500.6 299,511.4 296.7,500.3 	"/>
	<polygon class="st0" points="298.7,517.4 295.2,500.6 298.1,500 299.3,505.4 300.9,500.2 303.8,501.1 	"/>
	<polyline class="st0" points="299.8,497.5 310.6,500.9 299.5,503.1 	"/>
	<polygon class="st0" points="299.8,504.6 299.2,501.7 304.6,500.6 299.4,498.9 300.3,496.1 316.6,501.1 	"/>
	<polyline class="st0" points="299.2,503.1 288.4,499.8 299.5,497.5 	"/>
	<polygon class="st0" points="298.8,504.6 282.4,499.5 299.2,496 299.8,499 294.4,500.1 299.6,501.7 	"/>
	<polyline class="st0" points="343.1,430.7 345.6,422.6 347.4,431 	"/>
	<polygon class="st0" points="345.9,431.3 345.4,428.6 344.5,431.2 341.7,430.3 345.9,416.6 348.9,430.6 	"/>
	<polyline class="st0" points="347.4,431.2 344.8,439.3 343.1,431 	"/>
	<polygon class="st0" points="344.5,445.3 341.6,431.3 344.6,430.7 345.1,433.3 345.9,430.8 348.8,431.6 	"/>
	<polyline class="st0" points="345.5,428.8 353.6,431.4 345.3,433.1 	"/>
	<polygon class="st0" points="345.6,434.6 345,431.6 347.6,431.1 345,430.3 345.9,427.4 359.6,431.7 	"/>
	<polyline class="st0" points="345,433.1 336.9,430.6 345.2,428.8 	"/>
	<polygon class="st0" points="344.6,434.5 330.9,430.3 344.9,427.4 345.5,430.3 342.9,430.9 345.5,431.7 	"/>
	<path class="st0" d="M123.2,418.7l-1.9-0.5c-13.2-3.9-22-16.2-21.6-29.9l0.1-1.9l1.9,0.5c13.2,3.9,22,16.2,21.6,29.9L123.2,418.7z
		 M102.7,390.4c0.5,10.9,7.3,20.4,17.5,24.3C119.7,403.8,112.9,394.3,102.7,390.4L102.7,390.4z"/>
	
		<ellipse transform="matrix(0.8108 -0.5854 0.5854 0.8108 -214.2167 141.6477)" class="st0" cx="112" cy="402.1" rx="5.7" ry="5.7"/>
	<polygon class="st0" points="206.4,348.9 209.5,331 222.1,344 	"/>
	<polygon class="st0" points="250.9,338.4 259.4,322.4 267.4,338.8 	"/>
	<polygon class="st0" points="262.3,659.5 267.9,639.8 280.6,655.8 	"/>
	<polygon class="st0" points="284,656.1 289.5,636.4 302.2,652.5 	"/>
	<polygon class="st0" points="305.4,653.8 314.8,635.6 324,653.9 	"/>
	<polygon class="st0" points="239.3,662.5 247.9,643.9 257.9,661.7 	"/>
	<polygon class="st0" points="216.5,660.1 229.9,644.6 234.6,664.5 	"/>
	<polygon class="st0" points="298.3,342.6 308.6,327.7 314.6,344.8 	"/>
	<path class="st0" d="M233.6,664.7c-11.8,0-21.9-2.5-28.5-9.9l2.2-2c12.4,13.8,39.3,8.7,65.3,3.8c25.1-4.8,48.8-9.3,59.7,2.9l-2.2,2
		c-9.8-10.9-32.7-6.5-56.9-1.9C259.6,662,245.7,664.7,233.6,664.7z"/>
	<path class="st0" d="M234.9,641.8c-11.8,0-21.9-2.5-28.5-9.9l2.2-2c12.4,13.8,39.3,8.7,65.3,3.8c25.1-4.8,48.8-9.3,59.7,2.9l-2.2,2
		c-9.8-10.9-32.7-6.5-56.9-1.9C260.8,639.1,246.9,641.8,234.9,641.8z"/>
	<path class="st0" d="M236.1,618.9c-11.8,0-21.9-2.5-28.5-9.9l2.2-2c12.4,13.8,39.3,8.7,65.3,3.8c25.1-4.8,48.8-9.3,59.7,2.9l-2.2,2
		c-9.8-10.9-32.7-6.5-56.9-1.9C262,616.3,248.2,618.9,236.1,618.9z"/>
	<path class="st0" d="M101.2,397.8h-6.5c-0.6,0-1-0.4-1-1s0.4-1,1-1h6.5c0.6,0,1,0.4,1,1S101.7,397.8,101.2,397.8z"/>
	<path class="st0" d="M101.2,411.4c-0.6,0-1-0.4-1-1c0-0.3,0.1-0.6,0.4-0.8l5.4-4.4c0.4-0.3,1.1-0.2,1.4,0.2c0.3,0.4,0.2,1-0.1,1.3
		l-5.4,4.4C101.6,411.3,101.4,411.4,101.2,411.4z"/>
	<path class="st0" d="M113.8,421.9h-0.2c-0.5-0.1-0.9-0.7-0.8-1.2l1.5-6.6c0.1-0.6,0.7-0.9,1.2-0.8s0.9,0.7,0.8,1.2l-1.5,6.6
		C114.7,421.6,114.2,421.9,113.8,421.9z"/>
	<path class="st0" d="M128.7,409.5h-6.5c-0.6,0-1-0.4-1-1s0.4-1,1-1h6.5c0.6,0,1,0.4,1,1S129.2,409.5,128.7,409.5z"/>
	<path class="st0" d="M116.8,400.3c-0.6,0-1-0.4-1-1c0-0.3,0.1-0.6,0.4-0.8l5.4-4.4c0.4-0.3,1.1-0.2,1.4,0.2c0.3,0.4,0.2,1-0.1,1.3
		l-5.4,4.4C117.2,400.2,117,400.3,116.8,400.3z"/>
	<path class="st0" d="M108.1,392h-0.2c-0.5-0.1-0.9-0.7-0.8-1.2l1.5-6.6c0.1-0.6,0.7-0.9,1.2-0.8s0.9,0.7,0.8,1.2l-1.5,6.6
		C109,391.7,108.6,392.1,108.1,392z"/>
	<circle class="st0" cx="95.8" cy="381.1" r="2.1"/>
	<circle class="st0" cx="128.1" cy="427.2" r="4.1"/>
	<circle class="st0" cx="270.7" cy="624.5" r="4.1"/>
	<circle class="st0" cx="302" cy="619.4" r="4.1"/>
	<circle class="st0" cx="290" cy="489.2" r="2.1"/>
	<circle class="st0" cx="309.6" cy="490.2" r="2.1"/>
	<circle class="st0" cx="355.7" cy="422" r="2.1"/>
	<circle class="st0" cx="289" cy="509.2" r="2.1"/>
	<circle class="st0" cx="237.9" cy="629.7" r="4.1"/>
	<circle class="st0" cx="221.8" cy="627.7" r="2.1"/>
	<circle class="st0" cx="255.1" cy="627.7" r="2.1"/>
	<circle class="st0" cx="286.4" cy="621.4" r="2.1"/>
	<circle class="st0" cx="317.5" cy="619.4" r="2.1"/>
	<circle class="st0" cx="308.6" cy="511.2" r="2.1"/>
	<circle class="st0" cx="335.7" cy="421" r="2.1"/>
	<circle class="st0" cx="215.7" cy="353.6" r="2.1"/>
	<circle class="st0" cx="259.1" cy="346.5" r="2.1"/>
	<circle class="st0" cx="305.5" cy="351.3" r="2.1"/>
	<circle class="st0" cx="355.3" cy="440.8" r="2.1"/>
	<circle class="st0" cx="335.2" cy="439.8" r="2.1"/>
	<path class="st0" d="M170.9,209.8L170.9,209.8l-0.7,0.8l-99.6-83.1l57.7,77.8l43,11.6L170.9,209.8z M139.5,199.8
		c-0.6,0.6-1.3,0.9-2.1,0.9h-0.1c-0.8,0-1.6-0.4-2.1-0.9c-1.1-1.2-1.1-3.1,0.1-4.3c0.6-0.6,1.4-0.9,2.2-0.9c0.8,0,1.6,0.4,2.1,0.9
		C140.7,196.7,140.7,198.6,139.5,199.8L139.5,199.8z"/>
	<polygon class="st0" points="145.4,212 129.7,207.7 140.1,233.5 139.2,233.9 139.2,233.9 145.7,236.3 	"/>
	<polygon class="st0" points="89.5,108.3 109.2,157 144.3,186.3 	"/>
	<line class="st3" x1="57.1" y1="346.5" x2="57.1" y2="309.1"/>
	<line class="st3" x1="180.6" y1="124.3" x2="180.6" y2="92.7"/>
	<line class="st3" x1="257.8" y1="103.2" x2="257.8" y2="53"/>
	<line class="st3" x1="408.5" y1="241.4" x2="448.4" y2="241.1"/>
	<line class="st3" x1="334.5" y1="113.8" x2="335.1" y2="92.8"/>
</g>
<g id="Invert">
	<path d="M258.6,118c5,1,7.4,4.7,9.2,8.9c2.4,5.7,4,11.7,4.9,17.8c2.3,13.5,3.6,27.1,3.8,40.8c0.3,12.7,0.2,25.3,0.5,38
		c0.1,3.4,0.7,6.8,1.1,10.2c1,8.9,2,17.7,3,26.6c1,8.9,2,17.7,3,26.4c0.7,6.1,1.4,12.1,2.3,18.3c0.2-0.4,0.3-0.7,0.5-1.1
		c1.9-6.7,4.1-13.4,5.7-20.2c4-17.3,6.9-34.8,9.4-52.3c1.5-10.3,2.6-20.6,3.8-30.9c2.1-17.5,4.6-35,9.1-52.1
		c1.3-5.4,3.2-10.7,5.8-15.7c0.5-1,1.2-2,1.9-2.9c3.5-4.6,8.6-5,12.9-1c2.7,2.6,4.2,5.9,5.4,9.3c2.1,6.5,3.5,13.3,4.1,20.2
		c1.1,10.9,1.5,21.8,1.3,32.7c-0.1,12.8-0.9,25.6-2.4,38.3c-1.9,15.5-3.7,31.1-5.3,46.7c-1.2,11.4-2,22.8-2.1,34.2
		c-0.1,7.6,0,15.2,1.6,22.7c0.4,1.7,0.9,3.4,1.6,5c0.4,0.8,0.9,1.6,1.6,2.2c0.3,0.6,1.1,0.8,1.6,0.4c0.1-0.1,0.3-0.2,0.4-0.3
		c1.4-1.3,2.6-2.8,3.7-4.4c4-6.5,7.3-13.4,9.8-20.5c6.4-17,12.4-34.1,18.8-51.1c3.7-9.9,7.7-19.8,11.8-29.6
		c1.9-4.8,4.6-9.3,7.9-13.2c0.6-0.7,1.3-1.3,2-1.9c3.9-3.2,8.9-2.5,11.7,1.7c1.6,2.5,2.4,5.4,2.5,8.4c0.6,7.4-0.6,14.6-2,21.8
		c-2,10-5,19.6-7.9,29.4c-1.4,4.9-2.3,10-3.3,15c-3.5,17.8-6.1,35.7-8.7,53.6c-1.3,9-2.7,18-3.9,27c-0.9,6.7-1.5,13.5-2.2,20.3
		c-0.8,7-1.6,13.9-2.5,20.8c-1.3,9.5-2.6,18.9-4,28.4c-2.9,20.9-7.4,41.5-13.5,61.6c-4,12.9-7.8,25.8-12.7,38.4
		c-2.9,7.2-6,14.3-9.1,21.5c-1.8,4.4-3.1,9.1-3.8,13.8c-1.6,9.1-2.4,18.2-2.5,27.4c-0.1,10.5-0.2,20.9-0.2,31.4
		c0,10,0.3,19.9,0.3,29.9c0,8.2-0.4,16.4-0.7,24.5l-0.3,0.1l-1.9-2c-1.2-1.3-2.4-2.8-3.8-4c-2.7-2.4-6.2-3.2-9.7-3.8
		c-6.1-0.8-12.3-0.7-18.4,0.2c-13.2,1.8-26.3,3.8-39.5,5.8c-9.4,1.5-18.9,2.3-28.4,2.3c-7.4-0.1-14.7-0.9-21.5-4
		c-3.5-1.5-6.7-3.8-9.2-6.7c-0.4-0.4-0.6-1-0.6-1.6c0.6-9.2,1.2-18.5,1.7-27.8c0.6-9.5,1.2-19.1,1.7-28.6
		c0.6-10.8,0.6-21.6-0.1-32.4c-0.6-7.8-1.6-15.6-4.6-23c-1.7-4.2-4-8.2-8-10.6c-2.2-1.2-4.6-2.3-6.9-3.2
		c-16.6-7.6-30.8-19.6-41.1-34.7c-2.7-3.9-4.4-8.5-6.6-12.7c-3.1-6.2-4.9-12.8-7.3-19.2c-6.6-17.4-15.2-33.8-24.6-49.9
		c-11.7-20.1-25.3-38.9-40.7-56.3c-7.8-8.9-16-17.4-25.6-24.5c-2.2-1.6-4.5-3.1-6.7-4.6c0-0.1,0-0.2,0-0.2c5.3-4.2,11.2-7.6,17.9-9
		c8.3-1.8,16.5-1,24.5,1.6c11.1,3.5,20.8,9.5,29.8,16.8c8.4,6.9,15.5,15,21.3,24.2c4.9,7.9,10.5,15.4,16.7,22.4
		c3.5,4,7.7,7.4,12.4,9.9c4,2.1,8.3,2.1,12.7,2.1c2.4,0,3.5-1.2,4.3-3.2c1.5-4,2.5-8.2,2.9-12.5c1.1-9.5,1.7-19,1.8-28.5
		c0.3-15.6-0.1-31.2-0.8-46.8c-0.8-16.2-1.7-32.5-2.6-48.7c-0.8-14.6-1.9-29.1-2.6-43.7c-0.6-12.4-0.9-24.8-1.3-37.1
		c-0.2-6.1-0.3-12.3-0.3-18.5c-0.1-9.3,0.5-18.6,1.8-27.9c0.6-4.6,1.9-9.1,3.9-13.3c1.5-2.9,3.6-5.3,6.9-6.2c2.7-0.7,5.7,0,7.7,2
		c3,2.6,4.8,5.9,6.4,9.4c3.4,7.2,5.5,14.9,7.5,22.6c3.1,12.1,5.5,24.4,7.5,36.7c2.4,14.6,4.4,29.3,7,43.9
		c2.9,16.4,6.3,32.8,11.2,48.8c0.8,2.7,1.9,5.3,2.9,8c0.2,0.4,0.4,0.7,0.6,1.1c0.1-2.1,0.2-3.8,0.3-5.6c0.6-11.9,1.2-23.8,1.8-35.7
		c0.6-12.4,1.3-24.7,1.8-37.1c0.2-5.3,0-10.6,0.1-16c0.1-15.3,0.6-30.6,2-45.9c1-10.7,2.2-21.4,5.2-31.8c0.8-2.6,1.7-5.2,2.8-7.8
		c2-4.5,4.7-8.3,9.9-9.4L258.6,118z M329.5,681.4c0-4.1,0-7.8,0-11.7c-0.1-13.5-0.3-27-0.4-40.5c0-7,0-14.1,0.2-21.1
		c0.1-9.8,1.1-19.5,2.7-29.1c0.8-4.8,2.1-9.5,3.9-14c3.2-7.5,6.5-14.9,9.5-22.5c4.9-12.5,8.7-25.4,12.5-38.2
		c4.5-14.7,8-29.6,10.5-44.7c1.7-10.8,3.4-21.6,4.9-32.5c1.4-9.7,2.5-19.5,3.7-29.3c1-8,1.6-16.1,2.7-24.2c1.5-10.9,3-21.8,4.8-32.7
		c2.4-15,4.8-29.9,7.4-44.8c1-5.9,2.2-11.7,3.8-17.4c2.8-9.9,5.9-19.7,7.8-29.8c1.2-6.2,2.2-12.4,1.8-18.7c-0.2-1.9-0.6-3.7-1.4-5.4
		c-0.6-1.6-1.8-1.7-3.1-0.6c-0.7,0.6-1.3,1.3-1.9,2c-2.8,3.9-5.2,8.2-7.1,12.6c-5.2,11.5-9.4,23.3-13.7,35.2
		c-5.6,15.2-11.1,30.5-16.8,45.6c-2.4,6.7-5.6,13.2-9.4,19.3c-1.4,2.4-3.3,4.6-5.5,6.3c-3,2.2-6.3,2.1-9-0.4
		c-1.4-1.4-2.6-2.9-3.4-4.7c-2.3-4.8-3.1-10-3.4-15.2c-0.3-6.3-0.5-12.5-0.4-18.8c0.2-7,0.6-14,1.2-20.9c0.6-7.7,1.4-15.4,2.2-23.1
		c0.9-8.6,2-17.2,3-25.9c0.8-7.2,1.7-14.4,2.3-21.7c0.5-7.6,0.8-15.2,1-22.8c0.3-13.3-0.1-26.6-2.1-39.8c-0.8-5-1.7-10-4-14.6
		c-0.8-1.6-1.9-3.1-3.2-4.4c-1.2-1.2-2.1-1-3.1,0.3c-0.7,0.8-1.4,1.6-1.9,2.6c-1.5,3.3-2.8,6.7-3.9,10.1
		c-5.2,18.2-7.8,36.9-10.1,55.6c-1,8-1.8,16.1-2.9,24.2c-2.6,18.7-5.6,37.4-9.6,55.8c-1.8,8.2-3.6,16.5-6.7,24.3
		c-1.1,2.6-2.4,5-4,7.4c-0.8,1.1-1.9,1.8-3.1,2.2c-1.3,0.3-2.7,0.3-4-0.2c-0.4-0.1-0.4-1.7-0.5-2.5c-0.1-0.3-0.1-0.6-0.1-1
		c-1-8.7-2-17.5-3-26.2c-1-8.9-2-17.7-3-26.6c-0.9-8.2-1.9-16.4-2.8-24.5c-0.4-4-1-8-1-12c-0.3-12.7-0.3-25.4-0.6-38.1
		c-0.3-12.6-1.5-25.1-3.4-37.6c-0.9-5.6-2-11.3-4.3-16.5c-0.7-1.7-1.6-3.2-2.7-4.7c-1.3-1.6-2.7-1.7-4.2-0.2c-1,0.8-1.8,1.9-2.4,3
		c-1.4,2.9-2.6,5.8-3.5,8.9c-2.9,10.1-4.1,20.4-5,30.8c-1.4,15.1-1.9,30.1-1.9,45.3c0,4.7,0.2,9.4,0,14.1
		c-0.1,5.8-0.5,11.5-0.8,17.2c-0.6,12.4-1.3,24.8-1.9,37.2c-0.6,11.4-1.1,22.8-1.7,34.2c0,0.3-0.2,0.6-0.4,0.9
		c-2.2,1.2-4.9,0.9-6.7-0.8c-1.1-1.2-2.1-2.5-2.9-3.9c-2.6-5.1-4.6-10.4-6-16c-6.3-23.2-11.1-46.8-14.4-70.6
		c-2.5-17.5-5.3-34.9-9.5-52.1c-2.1-8.6-4.4-17.1-8.1-25.2c-1.2-2.6-2.5-5.2-4.8-7.1c-1.2-1-2.4-1.1-3.4,0.2
		c-1.1,1.2-1.9,2.6-2.6,4.1c-1.6,4-2.5,8.3-2.9,12.6c-1.5,12.1-1.4,24.3-1.1,36.4c0.3,12,0.8,24,1.3,35.9
		c0.7,14.1,1.5,28.2,2.2,42.3c0.7,13,1.6,26,2.3,39c0.6,13,1.2,26.3,1.5,39.4c0.2,11.8,0.1,23.7-0.1,35.5
		c-0.1,8.3-0.9,16.6-2.5,24.8c-0.6,3.8-1.8,7.6-3.6,11c-1.1,2.2-3,3.7-5.4,4.3c-1.1,0.2-2.1,0.3-3.2,0.3c-6.1,0.4-11.9-0.4-17.3-3.6
		c-4.7-2.9-9-6.4-12.7-10.5c-6.4-7.1-12-14.8-17-22.9c-6.5-10.5-15.1-19.7-25.2-26.9c-8.4-6-17.4-10.8-27.6-12.9
		c-8.1-1.7-16-1.3-23.5,2.3c-0.4,0.2-0.9,0.5-1.4,0.7c7.3,5.6,14.1,11.9,20.3,18.7c18.1,19.4,34,40.8,47.3,63.8
		c9.4,16.2,18.1,32.7,24.8,50.3c2.4,6.3,4,12.8,7.1,18.8c2.2,4.4,4.1,9,6.8,13c7.1,10.4,16.3,19.2,26.9,25.8
		c12.7,7.8,26.8,13.2,41.4,15.9c2.8,0.5,5.7,0.6,8.7,1l0.5,5.8c-8.1,0.2-15.7-1.6-23.4-3.8c2.1,3.9,3.6,8.1,4.6,12.5
		c2.4,10.2,2.9,20.5,3,30.8c0,7.3-0.2,14.7-0.6,22c-0.5,10.1-1.2,20.3-1.9,30.4c-0.4,6.7-0.8,13.4-1.3,20.1c-0.1,0.8,0.2,1.5,0.8,2
		c2.5,2.1,5.4,3.6,8.5,4.5c7,2.2,14.3,2.4,21.6,2.1c12-0.5,23.8-2.5,35.5-4.3c10.3-1.7,20.6-3.5,31-4.1
		C313.4,677.8,321.4,677.8,329.5,681.4L329.5,681.4z"/>
	<path d="M329.5,681.4c-8-3.6-16.1-3.5-24.2-3.1c-10.4,0.6-20.7,2.4-31,4.1c-11.8,1.9-23.6,3.8-35.5,4.3c-7.3,0.3-14.6,0.1-21.6-2.1
		c-3.1-0.9-6-2.5-8.5-4.5c-0.6-0.5-0.9-1.2-0.8-2c0.4-6.7,0.9-13.4,1.3-20.1c0.6-10.1,1.4-20.3,1.9-30.4c0.4-7.3,0.6-14.7,0.6-22
		c0-10.4-0.6-20.7-2.9-30.8c-1-4.3-2.5-8.5-4.6-12.5c7.7,2.2,15.4,4.1,23.4,3.8l-0.5-5.8c-3-0.3-5.9-0.5-8.7-1
		c-14.7-2.8-28.7-8.2-41.4-15.9c-10.7-6.6-19.8-15.4-27-25.7c-2.7-4-4.6-8.7-6.8-13c-3-6-4.7-12.6-7.1-18.8
		c-6.7-17.6-15.4-34.1-24.8-50.3c-13.3-23-29.2-44.4-47.3-63.8c-6.2-6.8-12.9-13.1-20.2-18.7c0.6-0.3,1-0.5,1.4-0.7
		c7.6-3.6,15.5-4,23.5-2.3c10.2,2.1,19.2,6.9,27.6,12.9c10.1,7.2,18.6,16.3,25.2,26.9c5,8.1,10.6,15.8,17,22.9
		c3.7,4.1,7.9,7.7,12.6,10.6c5.4,3.2,11.2,4,17.3,3.6c1.1,0,2.2-0.1,3.2-0.3c2.3-0.5,4.3-2.1,5.4-4.3c1.8-3.4,3-7.2,3.6-11
		c1.6-8.2,2.4-16.5,2.5-24.8c0.2-11.8,0.4-23.7,0.1-35.5c-0.2-13.1-0.8-26.3-1.5-39.4c-0.6-13.1-1.5-26-2.3-39
		c-0.8-14.1-1.6-28.2-2.2-42.3c-0.6-12-1.1-24-1.3-35.9c-0.3-12.1-0.3-24.3,1.1-36.4c0.4-4.3,1.3-8.5,2.9-12.6
		c0.7-1.5,1.5-2.9,2.6-4.1c1-1.2,2.1-1.2,3.4-0.2c2.3,1.9,3.6,4.5,4.8,7.1c3.7,8,6,16.6,8.1,25.2c4.1,17.2,7,34.6,9.5,52.1
		c3.3,23.8,8.1,47.4,14.3,70.6c1.4,5.6,3.4,10.9,6,16c0.8,1.4,1.8,2.7,2.9,3.9c1.8,1.7,4.5,2.1,6.7,0.8c0.3-0.2,0.4-0.5,0.4-0.9
		c0.6-11.4,1.2-22.8,1.7-34.2c0.6-12.4,1.2-24.8,1.9-37.2c0.3-5.8,0.7-11.5,0.8-17.2c0.1-4.7-0.1-9.4,0-14.1
		c0.1-15.1,0.6-30.2,1.9-45.3c0.9-10.4,2.1-20.8,5-30.8c1-3,2.1-6,3.5-8.9c0.6-1.1,1.4-2.2,2.4-3c1.5-1.4,3-1.4,4.2,0.2
		c1.1,1.4,2.1,3,2.8,4.7c2.3,5.3,3.4,10.9,4.3,16.5c2,12.4,3.1,25,3.4,37.6c0.4,12.7,0.4,25.4,0.6,38.1c0.1,4,0.6,8,1,12
		c0.9,8.2,1.9,16.4,2.8,24.5c1,8.9,2,17.7,3,26.6c1,8.7,2,17.5,3,26.2c0,0.3,0.1,0.6,0.1,1c0.2,0.9,0.1,2.4,0.5,2.5
		c1.3,0.4,2.7,0.5,4,0.2c1.3-0.4,2.4-1.1,3.1-2.2c1.6-2.3,2.9-4.8,4-7.4c3.1-7.9,5-16.1,6.7-24.3c4-18.5,7-37.1,9.6-55.8
		c1.1-8,1.9-16.1,2.9-24.2c2.3-18.7,4.9-37.4,10.1-55.6c1.1-3.5,2.4-6.9,3.9-10.2c0.5-0.9,1-1.8,1.7-2.6c1.1-1.3,2-1.5,3.1-0.3
		c1.3,1.3,2.4,2.8,3.2,4.4c2.3,4.6,3.2,9.6,4,14.6c2,13.2,2.4,26.5,2.1,39.8c-0.1,7.6-0.4,15.2-1,22.8c-0.5,7.2-1.5,14.5-2.3,21.7
		c-1,8.6-2,17.2-3,25.9c-0.8,7.7-1.6,15.4-2.2,23.1c-0.5,7-1,14-1.2,20.9c-0.1,6.3,0,12.5,0.4,18.8c0.3,5.2,1,10.5,3.4,15.2
		c0.8,1.8,2,3.4,3.4,4.7c2.7,2.5,6,2.5,9,0.4c2.2-1.7,4.1-3.8,5.5-6.3c3.8-6.1,7-12.5,9.5-19.2c5.7-15.2,11.3-30.4,16.8-45.6
		c4.3-11.8,8.5-23.7,13.7-35.2c1.9-4.5,4.2-8.7,7.1-12.6c0.6-0.7,1.2-1.4,1.9-2c1.3-1.1,2.5-1,3.1,0.6c0.7,1.7,1.2,3.5,1.4,5.4
		c0.5,6.3-0.5,12.5-1.8,18.7c-2,10.1-5,19.9-7.8,29.8c-1.6,5.7-2.8,11.6-3.8,17.4c-2.6,14.9-5,29.9-7.4,44.8
		c-1.7,10.8-3.3,21.8-4.8,32.7c-1.1,8-1.8,16.1-2.7,24.2c-1.2,9.8-2.3,19.5-3.7,29.3c-1.5,10.8-3.2,21.6-4.9,32.5
		c-2.5,15.1-6,30.1-10.5,44.7c-3.8,12.9-7.6,25.7-12.5,38.2c-3,7.6-6.3,15-9.5,22.5c-1.8,4.5-3.1,9.2-3.9,14
		c-1.7,9.6-2.6,19.3-2.7,29.1c-0.2,7-0.3,14.1-0.2,21.1c0.1,13.5,0.3,27,0.4,40.5C329.5,673.5,329.5,677.3,329.5,681.4z"/>
	<g id="Layer_4_copy">
		<circle class="st4" cx="221.8" cy="674.2" r="4.1"/>
		<circle class="st4" cx="254" cy="674.2" r="4.1"/>
		<circle class="st4" cx="286.4" cy="668.2" r="4.1"/>
		<circle class="st4" cx="317.5" cy="667.2" r="4.1"/>
		<circle class="st4" cx="237.9" cy="675.2" r="2.1"/>
		<circle class="st4" cx="270.2" cy="671.3" r="2.1"/>
		<circle class="st4" cx="302" cy="666.2" r="2.1"/>
		<path class="st5" d="M340.6,568.5l-5.4-2.6c7.5-15.9,13.8-32.4,18.8-49.3c1.1-3.5,2.2-7.1,3.2-10.9c2.8-8.9,5.2-18,7.5-28
			c0.7-3,1.4-6.2,2-9.4c3.8-21.5,7.1-44.9,10.3-71.4c0.3-2.6,0.5-5.2,0.8-7.9c0.6-6.1,1.2-11.2,1.8-15.9c0.5-3.2,1-6.3,1.4-9.4
			c0.7-4.6,1.3-9.1,2-13.7c3.3-23,6.8-46.8,12.1-70.4l0.1-0.3c1.2-3.7,2.3-7.4,3.3-10.9c9.3-32.4,6.8-41.6,5.3-44
			c-0.4-0.7-1-1.2-1.8-1.3c0,0-3.3-0.4-10.9,16.7c-5.2,11.5-10.8,27.5-16.3,42.9c-13,36.5-21.4,59-29.9,63c-1.6,0.8-3.4,0.9-5.1,0.3
			c-14.5-5.4-10.1-51.5-3.5-106.6c1-8.4,1.9-15.7,2.4-21.2c1.5-17.4,1.7-34.8,0.7-52.2c-2.1-31-8.6-34.1-10.5-34.3
			c-0.2,0-0.7,0.3-0.8,0.4c-8.3,6.8-15.5,55.6-18.1,84.8v0.1c0,0.2-3.2,24.5-7.7,48.3c-2.6,14-5.1,25.2-7.5,33.2
			c-3.6,12.2-6.9,17.1-11.2,16.7l-2.4-0.2L270.7,224v-0.3c0-0.2,0.5-22.3-0.8-45.6c-2.2-40.1-7.6-50.7-10.7-53.4
			c-0.5-0.6-1.3-0.9-2.1-0.8c-2.3,0.3-10,4.9-13.3,51.1c-1.8,25.6-1.3,51.3-1.3,51.6v0.2l-4.5,89.7l-2,0.6c-1.4,0.4-2.9,0.2-4.1-0.6
			c-3.3-2.1-8-9.1-15.9-45.1c-4.2-19.6-7.4-38.6-7.4-38.8v-0.1c0-0.2-2.9-23.9-7.7-47.2c-9-43.7-16.3-45-17.1-45l0,0
			c-0.9,0-1.7,0.4-2.2,1.1c-8.4,8.8-6.5,52.2-5.5,75.6c0.3,6.2,0.5,11.6,0.5,15.4c0,5,0.8,16.6,1.7,31.2
			c4.8,74.6,8.5,148.5-3.6,160.8c-1.4,1.5-3.3,2.3-5.4,2.2l0.3-6c0.1,0,0.3,0,0.8-0.5c2.6-2.7,7-14.3,6.3-62.2
			c-0.4-31.5-2.8-67.6-4.5-94c-1-14.7-1.7-26.4-1.7-31.6c0-3.6-0.2-9-0.5-15.1c-0.5-12.7-1.3-30.1-0.7-45.2
			c0.7-18.8,3.2-29.9,7.9-34.8c1.7-1.8,4.1-2.9,6.6-2.9l0,0c8.8,0,15.8,15.4,23,49.8c4.7,23,7.6,46.2,7.8,47.6
			c0.2,1.2,3.2,19.8,7.4,38.8c4.8,22,8.3,32.2,10.5,37l4-80.7c0-1.9-0.5-26.9,1.3-52c3.5-48.9,12.2-55.8,18.5-56.6
			c2.5-0.3,5.1,0.5,6.9,2.3c15,13.5,13.7,93.3,13.5,103.5l9.3,81.7c2.3-5.2,6-17,10.8-43.8c4-22.1,6.9-43.9,7.1-45.1
			c0.7-8.3,7.4-78.2,20.2-88.8c1.4-1.3,3.3-1.9,5.3-1.8c8.9,0.9,14.1,13.9,15.9,39.8c1.1,17.7,0.8,35.5-0.7,53.2
			c-0.5,5.6-1.4,12.9-2.4,21.3c-2.3,19.5-5.2,43.7-6,64c-1,30.4,3.6,35.5,5.6,36.2c0.2,0,0.3,0,0.5-0.1c6.8-3.2,17.9-34.4,26.8-59.5
			c14.8-41.8,23.7-65.4,33.9-63.5c2.4,0.4,4.6,1.9,5.8,4c6.5,10.4-1.9,39.4-4.6,48.9c-1,3.5-2.1,7.2-3.3,10.9
			c-5.2,23.3-8.7,47-12,69.8c-0.7,4.6-1.3,9.1-2,13.7c-0.5,3.1-0.9,6.2-1.4,9.4c-0.6,4.7-1.2,9.7-1.8,15.7c-0.3,2.7-0.5,5.3-0.8,7.9
			c-3.1,26.7-6.5,50.2-10.3,71.9c-0.7,3.3-1.4,6.5-2.1,9.6c-2.3,10.2-4.8,19.5-7.6,28.4c-1,3.7-2.1,7.4-3.2,10.9
			C354.6,535.5,348.2,552.3,340.6,568.5z"/>
		<path class="st5" d="M334.4,694.3l-4.8-5.4c-7.6-8.4-31.1-4.7-53.9-1c-29.3,4.7-59.7,9.6-73.5-5.8l-0.8-0.9l0.1-1.2
			c0.4-8.2,1-16.6,1.6-24.8c3.1-45.6,6.3-92.8-14.8-99.1l1.7-5.8c25.7,7.7,22.5,55.1,19.1,105.3c-0.5,7.7-1.1,15.7-1.5,23.4
			c12.2,11.9,41.4,7.2,67.3,3c21.9-3.5,42.7-6.9,54.4-0.9c0.4-11.5,0.2-24.1,0-36.3c-0.4-29.2-0.9-59.3,6.1-78.7l5.6,2
			c-6.6,18.4-6.1,48-5.7,76.6c0.2,14.4,0.4,29.2-0.3,42.3L334.4,694.3z"/>
		<path class="st5" d="M174.8,156l-3-0.2c0-0.1,0.7-8.4,2-16.6c2.6-15.6,5.2-17.9,7.5-18.1s5.3,1.5,10.6,15.8
			c2.8,7.5,4.9,15.2,5,15.3l-2.9,0.8c-5.2-18.6-10.6-28.9-12.4-28.9C179.3,124.6,176.1,139.6,174.8,156z"/>
		<path class="st5" d="M247.7,136.3l-3-0.5c1.7-9.8,6.4-32.6,13-32.6h0c6.8,0.1,9.5,22.6,10.4,32.2l-3,0.3
			c-1.4-15.7-4.9-29.4-7.5-29.5l0,0c0,0-2.6,0.1-6.5,14.5C249.1,128.4,247.8,136.2,247.7,136.3z"/>
		<path class="st5" d="M338.5,150.4c-1.4-20.2-4.1-34-6-35.6c-1.8,1.1-7,11.7-12.8,32.2l-2.9-0.8c0-0.1,2.5-8.7,5.5-17.1
			c5.7-15.9,8.5-17.7,10.7-17.4s4.4,3,6.7,20.1c1.2,9.1,1.8,18.3,1.8,18.4L338.5,150.4z"/>
		<path class="st5" d="M409.7,236.2l-2.9-0.6c2.5-12.7,3.4-24.6,1.9-26.2c-2,0.1-8.1,8.8-13.2,18.8l-2.7-1.4
			c4.2-8.2,12-21.9,16.8-20.2C414.2,208.1,412.2,223.5,409.7,236.2z"/>
		<path class="st5" d="M295.7,569.1c-19.4-12.8-43.4-4-43.6-3.9l-2.1-5.6c1.1-0.4,27-10.1,49.1,4.5L295.7,569.1z"/>
		<path class="st4" d="M251.1,543.5l-2.9-0.9c11.8-36.6,9.3-72.2-6.9-100.1c-11.5-19.9-29.5-34.1-48.1-38l0.6-2.9
			c19.4,4.1,38.1,18.8,50.1,39.4C260.6,469.7,263.2,506.1,251.1,543.5z"/>
		<path class="st4" d="M349.2,498.7c-25.7-47.6-66.1-76.2-95.4-91.8c-31.8-16.9-57.9-22.6-58.2-22.7l0.6-2.9
			c0.3,0.1,26.7,5.8,58.9,22.9c29.7,15.8,70.6,44.7,96.8,93L349.2,498.7z"/>
		<path class="st4" d="M342.4,398.3c-19.8,0-43.4-7.5-66.5-14.9c-28.5-9.1-58.1-18.5-77.7-12.4l-0.9-2.9
			c20.5-6.4,49.1,2.8,79.5,12.4c34.1,10.9,69.4,22.1,90.3,8.5l1.6,2.5C361.4,396.4,352.4,398.3,342.4,398.3z"/>
		<path class="st4" d="M393.1,292.5c-6.4-5.5-13.2-10.5-20.2-15.1l2.2-3.4c7.2,4.7,14.1,9.8,20.6,15.4L393.1,292.5z"/>
		<path class="st4" d="M336.2,257.8c-10.4-3.6-24.3-6.2-31.6-7.4l0.5-3c7.4,1.3,21.5,3.9,32.1,7.5L336.2,257.8z"/>
		<path class="st4" d="M175.7,275.7l-1.6-2.6c12.9-7.8,26.7-14.2,41.1-19l0.9,2.9C202,261.7,188.4,268,175.7,275.7z"/>
		<path class="st4" d="M240.8,184.9L240,179c10.9-1.4,22-2.2,33-2.2v6C262.2,182.8,251.5,183.5,240.8,184.9z"/>
		<path class="st4" d="M173.7,203.7l-2.4-5.5c10.6-4.7,21.6-8.6,32.8-11.8l1.6,5.8C194.8,195.3,184.1,199.1,173.7,203.7z"/>
		<path class="st4" d="M340.8,190.1c-5.7-1.5-13.7-2.5-20.8-3.3c-3.4-0.4-6.5-0.8-9.4-1.2l0.9-5.9c2.8,0.4,5.9,0.8,9.2,1.2
			c7.2,0.9,15.4,1.9,21.5,3.5L340.8,190.1z"/>
		<path class="st5" d="M225.4,565.9c-4.3,0-17.3-0.9-37.7-9.9c-15.5-6.7-29.1-17.1-39.7-30.3c-1.5-1.9-2.9-3.8-4.3-5.8l-0.1-0.2
			c-1.7-3-3.4-6.2-5-9.7c-1.5-3.1-2.9-6.3-4.4-9.9l-0.1-0.3c-8.9-28.7-24.4-55.5-38.5-77.8c-1.7-2.6-3.6-5.4-5.6-8.1
			c-14.2-20.1-36.8-47.5-53.9-58.6l-3.7-2.4l3.5-2.6c13.5-9.7,30.7-10,49.5-0.8c15.2,7.5,28.6,20,35.2,29c1.6,2.2,3.4,4.9,5.3,7.7
			c8.9,13.4,22.4,33.6,36.5,34.4c16.3,0.9,18.9-5.2,18.9-5.3v0.1l5.7,1.8c-0.3,1.1-3.9,10.5-25,9.4c-17.1-0.9-31-21.8-41.1-37
			c-1.9-2.8-3.6-5.5-5.1-7.5c-12.5-17.4-46.8-43.2-72.6-29.3c17.2,12.8,38.3,38.4,51.8,57.6c2,2.8,3.9,5.6,5.7,8.3
			c14.3,22.7,30.1,49.9,39.2,79.2c1.4,3.4,2.8,6.5,4.2,9.5c1.6,3.3,3.1,6.3,4.8,9.2c1.3,1.9,2.6,3.7,4,5.4
			c9.9,12.5,22.8,22.3,37.4,28.6c23.4,10.2,36.2,9.3,36.4,9.3l0.5,6C226.9,565.8,226.4,565.9,225.4,565.9z"/>
		<path class="st5" d="M55.6,369c-0.1,0-7.3-4.2-14-9c-13-9-13.6-12.4-12.5-14.4c2.2-4.2,11.8-0.9,14.7,0.3l-1.1,2.8
			c-5-1.9-10.4-2.7-11-1.7c-0.3,2.3,11.5,11.3,25.4,19.4L55.6,369z"/>
		<path class="st5" d="M170.5,202.3l-0.1-2.8c0-0.1-0.3-15.4,0.7-30.7c2-29,7.1-33,10.7-33.4l0,0c6-0.7,11.6,7.5,17.6,26
			c4.2,12.7,7,25.8,7,25.9l0.4,1.7L170.5,202.3z M182.4,139.4c-0.5,0.1-5.3,1.5-7.2,29.7c-0.8,11.2-0.8,22.5-0.8,27.6l27.8-10.2
			C197.1,162.9,188.2,138.6,182.4,139.4L182.4,139.4z"/>
		<path class="st5" d="M238.4,182.4l0.1-2.2c0.2-5.2,2.4-50.9,13.1-59.7c1.5-1.3,3.5-1.9,5.4-1.6c6.7,1,11.6,11.3,15,31.2
			c1.5,9.3,2.5,18.8,3.1,28.2l0.1,2L238.4,182.4z M256.1,122.9c-0.7,0-1.4,0.3-1.9,0.8c-2.2,1.8-6.3,8.2-9.4,31
			c-1.3,9.9-2,19.4-2.2,23.5l28.4-1.6c-0.3-4.3-1.1-15-2.9-25.8c-4.1-24.2-9.5-27.6-11.7-27.9C256.3,122.8,256.2,122.8,256.1,122.9
			L256.1,122.9z"/>
		<path class="st5" d="M343.5,187.7l-34.4-5.9l0.3-1.9c0.6-4.6,6.4-45.1,16.4-51.9c1.4-1,3.1-1.4,4.8-1l0,0
			c6.6,1.6,10.6,11.8,12.3,31.2c0.7,9.1,1,18.2,0.7,27.2L343.5,187.7z M313.7,178.6l26,4.4c0.1-4.4,0.1-14.4-0.8-24.5
			c-2-23.4-7.1-27.1-9.2-27.6c-0.6-0.1-1.1,0-1.6,0.4C321.2,136,315.6,165.4,313.7,178.6L313.7,178.6z"/>
		<path class="st5" d="M395.1,292l-22.2-18.4l0.4-1.3c1.7-5,16.7-49.4,27.9-53.3c1.6-0.6,3.3-0.4,4.7,0.5c3.2,2.1,6.7,8.4-0.6,38.4
			c-3.9,15.9-9.2,31.3-9.2,31.4L395.1,292z M377.5,272.2l15.6,13c1.7-5.1,5.3-16.5,8.2-28.3c7-28.5,3.6-33.2,2.4-34
			c-0.4-0.2-0.8-0.3-1.2-0.1C395.6,225.1,383.8,253.8,377.5,272.2L377.5,272.2z"/>
		<path class="st5" d="M72.2,386.6l-36-35.3l1.9-1.4c0.9-0.7,23-16.3,57.7,6.7l2.7,1.8l-2.7,1.6c-9.3,6.1-17,14.4-22.3,24.2
			L72.2,386.6z M42.5,351.9L71.2,380c5.1-8.5,11.8-15.9,19.9-21.7C65.7,342.6,48.3,348.9,42.5,351.9z"/>
		<path class="st4" d="M256.1,218.4c-1.5,0.1-2.8-0.6-3.6-1.8c-2.7-4.1,1.2-13.8,2-15.7l1.3-3l1.4,3c0.9,1.9,5.3,11.4,2.7,15.6
			c-0.8,1.3-2.2,2-3.7,2L256.1,218.4z M255.9,205.4c-1.2,3.7-2,7.9-1,9.4c0.2,0.2,0.4,0.5,1.2,0.5s1-0.3,1.2-0.6
			C258.3,213.3,257.3,209.1,255.9,205.4z"/>
		<path class="st4" d="M254.1,245.8c-4.7,0.5-9.3,1.2-14,2l0.5,3c4.3-0.8,8.7-1.4,13.1-1.9C253.7,247.9,253.8,246.9,254.1,245.8z"/>
		<path class="st4" d="M259.5,245.3c0.2,1,0.4,2,0.5,3c4.8-0.4,9.7-0.5,14.6-0.5v-3C269.5,244.8,264.5,245,259.5,245.3z"/>
		<path class="st4" d="M256.9,254.5c-1.5,0.1-2.8-0.6-3.6-1.8c-2.8-4.1,1.2-13.8,2-15.7l1.3-3l1.4,3c0.9,1.9,5.3,11.5,2.7,15.6
			c-0.8,1.3-2.2,2-3.7,2L256.9,254.5z M256.8,241.6c-1.2,3.7-2,7.9-1,9.4c0.2,0.2,0.4,0.5,1.2,0.5s1-0.3,1.2-0.5
			C259.1,249.4,258.1,245.2,256.8,241.6L256.8,241.6z"/>
		<path class="st4" d="M257.7,290.6c-1.5,0.1-2.8-0.6-3.6-1.8c-2.7-4.1,1.2-13.8,2-15.7l1.3-3l1.4,3c0.9,1.9,5.3,11.5,2.7,15.6
			c-0.8,1.3-2.2,2-3.7,2L257.7,290.6z M257.5,277.7c-1.2,3.7-2,7.9-1,9.4c0.2,0.2,0.4,0.5,1.2,0.5s1-0.3,1.2-0.5
			C259.9,285.5,258.9,281.4,257.5,277.7z"/>
		<path class="st4" d="M315.7,238.1c-0.8,0-1.5-0.7-1.5-1.5c0-0.3,0.1-0.7,0.3-0.9l12.7-16.2l-13.9,1l18-21.7
			c0.6-0.6,1.5-0.7,2.1-0.1c0.6,0.5,0.7,1.4,0.2,2l-13.5,16.4l13.7-0.9l-16.8,21.5C316.6,237.9,316.2,238.1,315.7,238.1z"/>
		<path class="st4" d="M309.3,304.5c-0.8,0-1.5-0.7-1.5-1.5c0-0.3,0.1-0.7,0.3-0.9l12.7-16.2l-13.9,1l18-21.7
			c0.6-0.6,1.5-0.7,2.1-0.1c0.6,0.5,0.7,1.4,0.2,2l-13.5,16.4l13.7-1l-16.8,21.5C310.2,304.3,309.8,304.5,309.3,304.5z"/>
		<path class="st4" d="M283.8,442.3c-12.1-0.6-21.4-10.9-20.8-23c0.6-12.1,10.9-21.4,23-20.8c4.8,0.2,9.3,2,13,5.1
			c-9-13.2-27-16.6-40.2-7.6c-13.2,9-16.6,27-7.6,40.2c9,13.2,27,16.6,40.2,7.6c2.2-1.5,4.1-3.2,5.8-5.2
			C293.2,441.3,288.5,442.6,283.8,442.3z"/>
		<path class="st4" d="M275.1,393.9L275.1,393.9c0.5,0,0.9,0,1.4,0c2.6,0.1,5.1,0.6,7.5,1.5c-13.8,0.5-24.5,12.1-24,25.9
			c0.5,12,9.4,22,21.3,23.7c-2,0.5-4.1,0.8-6.2,0.8c-0.5,0-0.9,0-1.4,0c-14.3-0.7-25.4-12.8-24.7-27.2
			C249.7,404.7,261.2,393.9,275.1,393.9 M275.1,390.9c-16,0-28.9,13-28.9,29c0,15.4,12.1,28.1,27.4,28.9c0.5,0,1,0,1.5,0
			c8.5,0,16.5-3.8,22-10.2c-3.6,2.5-7.9,3.8-12.2,3.8c-0.4,0-0.8,0-1.2,0c-12.1-0.3-21.7-10.4-21.4-22.5
			c0.3-12.1,10.4-21.7,22.5-21.4l0,0c0.4,0,0.8,0,1.2,0c4.7,0.3,9.3,2.1,12.9,5.1c-5.1-7.5-13.3-12.2-22.4-12.6
			C276.1,390.9,275.6,390.9,275.1,390.9L275.1,390.9z"/>
		<path d="M194.5,248.7H194c-7.5-0.1-14.5-3.3-19.6-8.8c-10.7-11.4-10.2-29.9,1-41.1c5.4-5.5,12.8-8.5,20.5-8.3
			c7.5,0.1,14.5,3.3,19.6,8.8c10.7,11.4,10.2,29.9-1,41.1C209.2,245.7,202,248.7,194.5,248.7z M195.4,195.5
			c-6.2,0-12.1,2.5-16.4,6.9c-9.4,9.3-9.8,24.6-0.9,34.1l0,0c4.1,4.5,9.9,7.1,16,7.2c6.3,0.1,12.4-2.4,16.8-6.9
			c9.4-9.3,9.8-24.6,0.9-34.1c-4.1-4.5-9.9-7.1-16-7.2L195.4,195.5z"/>
		<path d="M144.2,292.2c-10.7,0-20.5-5.9-25.5-15.4c-7.8-14.7-2.7-32.9,11.6-41.4c13.7-8.1,31.4-3.5,39.5,10.2
			c0.2,0.4,0.5,0.8,0.7,1.2c7.8,14.7,2.7,32.9-11.6,41.4C154.5,290.8,149.4,292.2,144.2,292.2z M145,236.4c-4.3,0-8.5,1.2-12.1,3.3
			c-12,7.1-16.3,22.4-9.7,34.7c6.1,11.7,20.6,16.1,32.2,10c0.4-0.2,0.7-0.4,1-0.6c12-7.1,16.3-22.4,9.8-34.7
			C162,241.3,153.9,236.4,145,236.4L145,236.4z"/>
		<path class="st6" d="M151.5,213.2"/>
		<path class="st4" d="M137.4,197.7L137.4,197.7c0,0,0-0.1,0-0.1C137.4,197.6,137.4,197.6,137.4,197.7z"/>
		<line class="st2" x1="190.6" y1="213.4" x2="202.7" y2="304.8"/>
		<path class="st4" d="M200.2,285.6c0,0,1.3,3.7,2.5,8.2v-0.7l-1.5-11.4l-3-22.8l-3-22.8l-1.6-11.4c-0.9-3.8-1.9-7.5-3-11.2
			c-0.1,3.9,0,7.8,0,11.6l1.5,11.4l3,22.8l3,22.8l1.4,10.1C199.8,288.5,200.2,285.6,200.2,285.6z"/>
		<path class="st4" d="M202.9,309.9c-1,0-2-0.4-2.7-1.2c-3.9-4.2-2-20.1-1.6-23.3l0.8-6.2l2.1,5.9c1.6,4.5,6.5,19.5,3.8,23.5
			c-0.5,0.8-1.3,1.2-2.2,1.3L202.9,309.9L202.9,309.9z M203,306.9l0.1,1.5L203,306.9L203,306.9z M201,293.2
			c-0.3,5.9,0,11.8,1.5,13.5c0.1,0.2,0.3,0.3,0.5,0.3C203.8,305.8,202.9,300.1,201,293.2L201,293.2z"/>
		<path class="st4" d="M363.9,348.1c-0.6,0-1.3-0.2-1.8-0.5c-0.9-0.5-1.6-1.4-1.8-2.4c-0.9-3.9,3.5-10.5,8.7-18.3v-0.2
			c1.9-11.8,3.3-19.1,6.5-21.1c0.9-0.6,1.9-0.7,2.9-0.4l0,0c1.3,0.3,2.4,1.3,2.8,2.5c1.4,3.9-2.6,10.2-9.3,20.1l-0.1,0.2
			c-1.8,11.2-3.2,18.2-6.5,19.8C364.9,348,364.4,348.1,363.9,348.1z M367.7,334.2c-2.7,4.3-4.9,8.4-4.5,10.2c0,0.2,0.2,0.4,0.4,0.5
			c0.3,0.2,0.4,0.1,0.5,0.1C365.5,344.4,366.7,339.5,367.7,334.2L367.7,334.2z M377.3,308c-0.1,0-0.2,0-0.3,0.1
			c-1.7,1.1-3,6.8-4.1,12.7c3.3-5.1,6.1-10.1,5.4-12.1c0-0.1-0.2-0.5-0.9-0.7L377.3,308z"/>
		<path class="st5" d="M185.7,165.2c-0.1,0-0.2,0-0.3,0.1c-0.1,0.1-0.2,0.4,0,0.5c0.1,0.1,0.2,0.1,0.2,0.1c0.1,0,0.2,0,0.3-0.1
			c0.1-0.1,0.1-0.2,0.1-0.3C186.1,165.4,185.9,165.2,185.7,165.2z"/>
		<path class="st5" d="M182.2,137.4c-11,1.4-9.7,62.1-9.7,62.1l32.1-11.7C204.6,187.8,193.5,136,182.2,137.4z M185.7,168.2h-0.1
			c-1.5,0-2.6-1.3-2.6-2.7c0-1.5,1.3-2.6,2.7-2.6c1.5,0,2.6,1.3,2.6,2.7C188.2,167.1,187.1,168.2,185.7,168.2z"/>
		<path class="st5" d="M65.9,356.1c-0.1,0-0.2,0-0.3,0.1c-0.1,0.1-0.2,0.4,0,0.5c0.1,0.1,0.2,0.1,0.2,0.1c0.2,0,0.4-0.1,0.4-0.3
			c0,0,0,0,0,0C66.3,356.3,66.1,356.1,65.9,356.1z"/>
		<path class="st5" d="M39.3,351.5l32.4,31.7c5.5-10.1,13.4-18.7,23.1-25C60.8,335.8,39.3,351.5,39.3,351.5z M67.7,358.4
			c-0.5,0.4-1.1,0.7-1.8,0.7h-0.1c-1.5-0.1-2.6-1.3-2.5-2.8c0.1-1.5,1.3-2.6,2.8-2.5s2.6,1.3,2.5,2.8
			C68.5,357.3,68.2,358,67.7,358.4z"/>
		<path class="st5" d="M257.2,152.9L257.2,152.9c-0.2,0-0.4,0.2-0.4,0.4s0.2,0.4,0.4,0.4c0.2,0,0.4-0.2,0.4-0.4c0-0.1,0-0.2-0.1-0.2
			C257.4,153,257.3,152.9,257.2,152.9L257.2,152.9z"/>
		<path class="st5" d="M256.8,120.9c-13.7-2.1-16.2,59.4-16.2,59.4l32.6-1.9C273.1,178.5,270.5,123.1,256.8,120.9z M257.2,155.9
			h-0.1c-1.5,0-2.6-1.3-2.6-2.7s1.3-2.6,2.7-2.6c1.5,0,2.6,1.3,2.6,2.7C259.7,154.7,258.6,155.9,257.2,155.9z"/>
		<path class="st5" d="M328.5,159.3c-0.2,0-0.4,0.2-0.4,0.4c0,0.2,0.2,0.4,0.4,0.4c0.1,0,0.2,0,0.3-0.1c0.1-0.1,0.2-0.4,0-0.5
			C328.8,159.3,328.7,159.3,328.5,159.3L328.5,159.3z"/>
		<path class="st5" d="M330.1,129c-11.3-2.7-18.7,51.2-18.7,51.2l30.2,5.1C341.6,185.4,343.5,132.2,330.1,129z M328.5,162.3h-0.1
			c-1.5,0-2.6-1.3-2.6-2.7s1.3-2.6,2.7-2.6c1.5,0,2.6,1.3,2.6,2.7C331.1,161.1,329.9,162.2,328.5,162.3z"/>
		<path class="st5" d="M396.9,244.6L396.9,244.6c-0.2,0-0.4,0.2-0.4,0.4h0.7C397.3,244.7,397.1,244.6,396.9,244.6
			C396.9,244.5,396.9,244.5,396.9,244.6L396.9,244.6z"/>
		<path class="st5" d="M396.9,245.3c0.2,0,0.4-0.2,0.4-0.4h-0.7C396.6,245.1,396.7,245.3,396.9,245.3z"/>
		<path class="st5" d="M404.8,221.1c-10.2-6.6-29.6,51.7-29.6,51.7l18.9,15.7C394.1,288.6,415,227.7,404.8,221.1z M399.5,245.1
			c-0.1,1.4-1.2,2.5-2.6,2.5h-0.1c-1.5-0.1-2.6-1.3-2.5-2.8s1.3-2.6,2.8-2.5C398.5,242.4,399.6,243.7,399.5,245.1L399.5,245.1z"/>
		<path class="st5" d="M214.9,468.9c-2.2-5.4-8.4-8.1-13.8-5.9c-2.6,1.1-4.7,3.1-5.8,5.7l-2.1,4.9l-4.9-2.1
			c-5.4-2.3-11.6,0.2-13.9,5.6s0.2,11.6,5.6,13.9l24.4,10.6l0.2-0.5h0.1l4.9-11.6l3.3-7.6l0,0l2-4.9
			C215.9,474.5,216,471.5,214.9,468.9z"/>
		<path class="st4" d="M207.9,510.4l-30.5-13.2c-8.7-3.8-12.7-14-8.9-22.7c3.6-8.2,12.8-12.3,21.3-9.5c4.4-8.5,14.9-11.7,23.3-7.3
			c7.5,3.9,11.1,12.7,8.4,20.8l0,0l-0.4,1.3l-5.3,12.5l-7.4,17.8h-0.1L207.9,510.4z M184.2,466.7c-8.1,0-14.6,6.5-14.7,14.6
			c0,5.9,3.5,11.2,8.9,13.5l28.1,12.2l0.2-0.5h0.1l11.2-26.6l0.4-1.2c3.2-7.4-0.3-16-7.7-19.2c-7.4-3.2-16,0.3-19.2,7.7l-0.5,1.2
			l-1.2-0.5C188.1,467,186.1,466.7,184.2,466.7z M205.1,503.4l-25.6-11.1c-5.9-3.1-8.1-10.4-5-16.2c2.7-5.2,8.8-7.6,14.4-5.8
			l3.6,1.5l1.6-3.6c3.1-5.8,10.4-8.1,16.2-4.9c5.1,2.7,7.6,8.8,5.8,14.3l-1.5,3.6l0,0l-0.5,1.2l-3.3,7.6l-5.4,12.8h-0.1L205.1,503.4
			z M184.2,472c-5.1,0-9.3,4.1-9.3,9.3c0,3.7,2.2,7.1,5.7,8.6l23.2,10.1l0.2-0.5h0.1l9.6-22.9c2-4.7-0.2-10.2-4.9-12.2
			c-4.7-2-10.2,0.2-12.2,4.9l0,0l-2.6,6.1l-6.1-2.6C186.7,472.2,185.4,472,184.2,472L184.2,472z"/>
		<polyline class="st4" points="296.7,500 300,489.2 302.3,500.3 		"/>
		<polygon class="st4" points="300.9,500.6 299.8,495.2 298.1,500.5 295.3,499.6 300.3,483.3 303.8,500 		"/>
		<polyline class="st4" points="302.3,500.6 299,511.4 296.7,500.3 		"/>
		<polygon class="st4" points="298.7,517.4 295.2,500.6 298.1,500 299.3,505.4 300.9,500.2 303.8,501.1 		"/>
		<polyline class="st4" points="299.8,497.5 310.6,500.9 299.5,503.1 		"/>
		<polygon class="st4" points="299.8,504.6 299.2,501.7 304.6,500.6 299.4,498.9 300.3,496.1 316.6,501.1 		"/>
		<polyline class="st4" points="299.2,503.1 288.4,499.8 299.5,497.5 		"/>
		<polygon class="st4" points="298.8,504.6 282.4,499.5 299.2,496 299.8,499 294.4,500.1 299.6,501.7 		"/>
		<polyline class="st4" points="343.1,430.7 345.6,422.6 347.4,431 		"/>
		<polygon class="st4" points="345.9,431.3 345.4,428.6 344.5,431.2 341.7,430.3 345.9,416.6 348.9,430.6 		"/>
		<polyline class="st4" points="347.4,431.2 344.8,439.3 343.1,431 		"/>
		<polygon class="st4" points="344.5,445.3 341.6,431.3 344.6,430.7 345.1,433.3 345.9,430.8 348.8,431.6 		"/>
		<polyline class="st4" points="345.5,428.8 353.6,431.4 345.3,433.1 		"/>
		<polygon class="st4" points="345.6,434.6 345,431.6 347.6,431.1 345,430.3 345.9,427.4 359.6,431.7 		"/>
		<polyline class="st4" points="345,433.1 336.9,430.6 345.2,428.8 		"/>
		<polygon class="st4" points="344.6,434.5 330.9,430.3 344.9,427.4 345.5,430.3 342.9,430.9 345.5,431.7 		"/>
		<path class="st4" d="M123.2,418.7l-1.9-0.5c-13.2-3.9-22-16.2-21.6-29.9l0.1-1.9l1.9,0.5c13.2,3.9,22,16.2,21.6,29.9L123.2,418.7z
			 M102.7,390.4c0.5,10.9,7.3,20.4,17.5,24.3C119.7,403.8,112.9,394.3,102.7,390.4L102.7,390.4z"/>
		
			<ellipse transform="matrix(0.8108 -0.5854 0.5854 0.8108 -214.2167 141.6477)" class="st4" cx="112" cy="402.1" rx="5.7" ry="5.7"/>
		<polygon class="st4" points="206.4,348.9 209.5,331 222.1,344 		"/>
		<polygon class="st4" points="250.9,338.4 259.4,322.4 267.4,338.8 		"/>
		<polygon class="st4" points="262.3,659.5 267.9,639.8 280.6,655.8 		"/>
		<polygon class="st4" points="284,656.1 289.5,636.4 302.2,652.5 		"/>
		<polygon class="st4" points="305.4,653.8 314.8,635.6 324,653.9 		"/>
		<polygon class="st4" points="239.3,662.5 247.9,643.9 257.9,661.7 		"/>
		<polygon class="st4" points="216.5,660.1 229.9,644.6 234.6,664.5 		"/>
		<polygon class="st4" points="298.3,342.6 308.6,327.7 314.6,344.8 		"/>
		<path class="st4" d="M233.6,664.7c-11.8,0-21.9-2.5-28.5-9.9l2.2-2c12.4,13.8,39.3,8.7,65.3,3.8c25.1-4.8,48.8-9.3,59.7,2.9
			l-2.2,2c-9.8-10.9-32.7-6.5-56.9-1.9C259.6,662,245.7,664.7,233.6,664.7z"/>
		<path class="st4" d="M234.9,641.8c-11.8,0-21.9-2.5-28.5-9.9l2.2-2c12.4,13.8,39.3,8.7,65.3,3.8c25.1-4.8,48.8-9.3,59.7,2.9
			l-2.2,2c-9.8-10.9-32.7-6.5-56.9-1.9C260.8,639.1,246.9,641.8,234.9,641.8z"/>
		<path class="st4" d="M236.1,618.9c-11.8,0-21.9-2.5-28.5-9.9l2.2-2c12.4,13.8,39.3,8.7,65.3,3.8c25.1-4.8,48.8-9.3,59.7,2.9
			l-2.2,2c-9.8-10.9-32.7-6.5-56.9-1.9C262,616.3,248.2,618.9,236.1,618.9z"/>
		<path class="st4" d="M101.2,397.8h-6.5c-0.6,0-1-0.4-1-1s0.4-1,1-1h6.5c0.6,0,1,0.4,1,1S101.7,397.8,101.2,397.8z"/>
		<path class="st4" d="M101.2,411.4c-0.6,0-1-0.4-1-1c0-0.3,0.1-0.6,0.4-0.8l5.4-4.4c0.4-0.3,1.1-0.2,1.4,0.2c0.3,0.4,0.2,1-0.1,1.3
			l-5.4,4.4C101.6,411.3,101.4,411.4,101.2,411.4z"/>
		<path class="st4" d="M113.8,421.9h-0.2c-0.5-0.1-0.9-0.7-0.8-1.2l1.5-6.6c0.1-0.6,0.7-0.9,1.2-0.8s0.9,0.7,0.8,1.2l-1.5,6.6
			C114.7,421.6,114.2,421.9,113.8,421.9z"/>
		<path class="st4" d="M128.7,409.5h-6.5c-0.6,0-1-0.4-1-1s0.4-1,1-1h6.5c0.6,0,1,0.4,1,1S129.2,409.5,128.7,409.5z"/>
		<path class="st4" d="M116.8,400.3c-0.6,0-1-0.4-1-1c0-0.3,0.1-0.6,0.4-0.8l5.4-4.4c0.4-0.3,1.1-0.2,1.4,0.2c0.3,0.4,0.2,1-0.1,1.3
			l-5.4,4.4C117.2,400.2,117,400.3,116.8,400.3z"/>
		<path class="st4" d="M108.1,392h-0.2c-0.5-0.1-0.9-0.7-0.8-1.2l1.5-6.6c0.1-0.6,0.7-0.9,1.2-0.8s0.9,0.7,0.8,1.2l-1.5,6.6
			C109,391.7,108.6,392.1,108.1,392z"/>
		<circle class="st4" cx="95.8" cy="381.1" r="2.1"/>
		<circle class="st4" cx="128.1" cy="427.2" r="4.1"/>
		<circle class="st4" cx="270.7" cy="624.5" r="4.1"/>
		<circle class="st4" cx="302" cy="619.4" r="4.1"/>
		<circle class="st4" cx="290" cy="489.2" r="2.1"/>
		<circle class="st4" cx="309.6" cy="490.2" r="2.1"/>
		<circle class="st4" cx="355.7" cy="422" r="2.1"/>
		<circle class="st4" cx="289" cy="509.2" r="2.1"/>
		<circle class="st4" cx="237.9" cy="629.7" r="4.1"/>
		<circle class="st4" cx="221.8" cy="627.7" r="2.1"/>
		<circle class="st4" cx="255.1" cy="627.7" r="2.1"/>
		<circle class="st4" cx="286.4" cy="621.4" r="2.1"/>
		<circle class="st4" cx="317.5" cy="619.4" r="2.1"/>
		<circle class="st4" cx="308.6" cy="511.2" r="2.1"/>
		<circle class="st4" cx="335.7" cy="421" r="2.1"/>
		<circle class="st4" cx="215.7" cy="353.6" r="2.1"/>
		<circle class="st4" cx="259.1" cy="346.5" r="2.1"/>
		<circle class="st4" cx="305.5" cy="351.3" r="2.1"/>
		<circle class="st4" cx="355.3" cy="440.8" r="2.1"/>
		<circle class="st4" cx="335.2" cy="439.8" r="2.1"/>
		<path class="st7" d="M363.3,297.2c-11-0.2-19.4-4.9-26.2-14.5c-1.8-2.5-3.3-5.2-4.6-8c-1.9-5.5-3.6-11.3-5.2-16.9
			c-2.8-9.7-5.7-19.8-10.2-29.4c-4.5-8.7-12.8-14.8-22.4-16.5c-6.4-1.1-13,0.6-18,4.7v5.2c0.3-0.1,0.6-0.3,0.8-0.5
			c4.3-4.5,10.5-6.5,16.6-5.4c8.4,1.5,15.5,6.8,19.4,14.3c4.3,9.3,7.2,19.2,9.9,28.8c1.6,5.7,3.3,11.5,5.3,17.2l0.1,0.2
			c1.4,3,3.1,5.9,5,8.6c7.2,10.3,16.5,15.6,28.2,16.2L363.3,297.2z"/>
		<path class="st7" d="M468.2,301c-0.1-0.1-0.1-0.3-0.2-0.4c-2.8-5.9-7.2-11-12.5-14.8c-17.2-12-40.5-6.9-56.2,3.3l-1.1,5.6
			c0.1,0,0.2-0.1,0.3-0.2c14.6-10.9,38-17.2,54.8-5.5c4.8,3.4,8.7,8,11.3,13.3c0,0,0.1,0.1,0.1,0.1c4.7,12.7-1.7,26.8-14.3,31.6
			c-10,3.8-21.1-1.2-24.9-11.2c-3-7.7,0.9-16.4,8.7-19.4c0,0,0,0,0.1,0c6-2.3,12.7,0.7,15,6.8c1.7,4.6-0.6,9.7-5.1,11.5
			c-3.5,1.3-7.4-0.4-8.7-3.9c0,0,0,0,0,0c-1-2.6,0.3-5.4,2.9-6.4c1.8-0.7,3.9,0.2,4.6,2.1c0,0,0,0,0,0c0.5,1.3-0.2,2.7-1.4,3.2
			c-0.8,0.3-1.7-0.1-2-0.9c-0.4-1-1.5-1.6-2.6-1.2c-1,0.4-1.6,1.5-1.2,2.6c1.1,2.9,4.3,4.3,7.2,3.2c3.3-1.3,5-5,3.8-8.3
			c-1.5-3.9-5.9-5.9-9.8-4.4c-4.6,1.8-6.9,6.9-5.2,11.6c2.1,5.5,8.3,8.3,13.8,6.2c6.7-2.5,10-10,7.5-16.6
			c-3.1-8.1-12.1-12.1-20.1-9.1c-9.8,3.8-14.7,14.7-11,24.5c4.6,12,18,18.1,30,13.5C466.4,332.2,473.8,315.7,468.2,301z"/>
		<path d="M170.9,209.8L170.9,209.8l-0.7,0.8l-99.6-83.1l57.7,77.8l43,11.6L170.9,209.8z M139.5,199.8c-0.6,0.6-1.3,0.9-2.1,0.9
			h-0.1c-0.8,0-1.6-0.4-2.1-0.9c-1.1-1.2-1.1-3.1,0.1-4.3c0.6-0.6,1.4-0.9,2.2-0.9c0.8,0,1.6,0.4,2.1,0.9
			C140.7,196.7,140.7,198.6,139.5,199.8L139.5,199.8z"/>
		<polygon points="145.4,212 129.7,207.7 140.1,233.5 139.2,233.9 139.2,233.9 145.7,236.3 		"/>
		<polygon points="89.5,108.3 109.2,157 144.3,186.3 		"/>
		<path class="st7" d="M198.3,303.6c-9.7,7.8-21.4,12.8-33.7,14.4c-17.5,2.2-34.2-2.8-45.9-13.8c-0.8-0.8-2-0.8-2.8,0
			c-0.8,0.8-0.8,2,0,2.8c0,0,0.1,0.1,0.1,0.1c10.6,10,25,15.4,40.5,15.4c2.9,0,5.8-0.2,8.6-0.5c12.6-1.6,24.5-6.5,34.5-14.2
			C198.9,306.4,198.5,305,198.3,303.6z"/>
		<path class="st7" d="M235.3,238.5l-9.4,21.8v0.1c-2.9,7.9-6.5,15.6-10.8,22.8c-1.2,2-2.6,4-3.9,5.9l-0.1,0.1
			c-2.8,4.4-6.2,8.5-10.1,12c0.1,1.6,0.4,3.1,0.9,4.5c4.9-4.1,9.1-9,12.6-14.4c1.4-1.9,2.7-4,4-6.1c4.4-7.4,8.2-15.3,11.1-23.4
			l5.9-13.8l0.4-10.9C235.7,237.6,235.5,238,235.3,238.5z"/>
	</g>
</g>
<g id="About">
	<g id="text">
		<path class="st7" d="M21.7,277.6c0.7,0,1.3,0.1,1.9,0.4c0.6,0.3,1.1,0.6,1.5,1.1c0.9,0.9,1.4,2.2,1.4,3.5v19.2h-2.6v-5.4h-5.1
			c0,0.5-0.1,1-0.1,1.5c0,0.4,0,0.9,0,1.2c0,0.6,0,1.3,0.2,1.9c0.1,0.2,0.2,0.5,0.3,0.7c0.2,0.3,0.3,0.5,0.5,0.7
			c0.3,0.3,0.6,0.6,1,0.8c0.4,0.3,0.9,0.6,1.5,1l-1.3,2.3c-1.1-0.6-2.1-1.4-3-2.4c-0.7-0.7-1.2-1.5-1.5-2.4
			c-0.1-0.4-0.2-0.8-0.2-1.2c0-0.4-0.1-0.9-0.1-1.4c0-0.5,0-1.1,0.1-1.8c0-0.7,0.1-1.4,0.2-2.2c0.1-0.7,0.1-1.5,0.2-2.5
			c0.1-1,0.1-2,0.2-3.2c0-1.1,0.1-2.3,0.1-3.5s0-2.4,0-3.4c0-0.6,0.1-1.3,0.4-1.9c0.2-0.6,0.6-1.1,1.1-1.5c0.5-0.4,1-0.8,1.5-1
			C20.3,277.7,20.9,277.6,21.7,277.6L21.7,277.6z M23.9,282.5c0-0.6-0.2-1.2-0.7-1.6c-0.4-0.4-1-0.7-1.6-0.6c-0.6,0-1.2,0.2-1.6,0.6
			c-0.4,0.4-0.7,1-0.6,1.6c0,1,0,2,0,3.1s0,2.1-0.1,3.1c0,1-0.1,2-0.1,2.8c0,0.9-0.1,1.6-0.1,2.2h4.9V282.5z"/>
		<path class="st7" d="M38.8,284.4c0,0.4-0.1,0.9-0.2,1.3c-0.1,0.4-0.3,0.8-0.6,1.1c1.2,0.7,2.1,1.7,2.8,2.9c0.7,1.2,1.1,2.6,1.1,4
			v0c0,1.1-0.2,2.1-0.6,3.1c-0.8,1.9-2.4,3.4-4.3,4.3c-1,0.4-2,0.6-3.1,0.6h-4.8v-21.2H35c0.5,0,1,0.1,1.5,0.3c0.9,0.4,1.6,1.1,2,2
			c0.2,0.5,0.3,1,0.3,1.5L38.8,284.4z M31.8,285.7H35c0.3,0,0.6-0.1,0.8-0.4c0.2-0.2,0.4-0.5,0.4-0.9v-0.1c0-0.7-0.6-1.2-1.2-1.2
			h-3.2V285.7z M39.3,293.7c0-0.7-0.1-1.4-0.4-2c-0.3-0.6-0.7-1.2-1.2-1.7c-0.5-0.5-1.1-1-1.7-1.3c-0.7-0.3-1.4-0.4-2.1-0.4h-2.1
			v10.9h2.2c0.7,0,1.4-0.1,2-0.4c0.6-0.3,1.2-0.7,1.7-1.1c0.5-0.5,0.9-1.1,1.2-1.7C39.1,295.2,39.3,294.4,39.3,293.7L39.3,293.7z"/>
		<path class="st7" d="M52.4,280.2c1.1,0,2.3,0.2,3.3,0.7c1,0.4,2,1.1,2.8,1.8c0.8,0.8,1.5,1.8,2,2.8c1,2.2,1,4.7,0.1,6.9
			c-0.4,1.1-1.1,2-1.9,2.9c-0.8,0.8-1.8,1.5-2.8,2c-2.2,1-4.7,1-6.8,0.1c-1.1-0.4-2-1.1-2.8-1.9c-0.8-0.8-1.5-1.8-2-2.8
			c-1-2.2-1-4.7-0.1-6.9c0.4-1.1,1.1-2,1.9-2.8c0.8-0.8,1.8-1.5,2.8-2C49.9,280.4,51.1,280.1,52.4,280.2z M52.4,295.3
			c0.8,0,1.6-0.2,2.4-0.5c0.7-0.3,1.4-0.8,2-1.3c0.6-0.6,1.1-1.3,1.4-2c0.7-1.5,0.7-3.3,0-4.9c-0.3-0.7-0.8-1.4-1.3-2
			c-0.6-0.6-1.3-1-2-1.4c-0.8-0.3-1.6-0.5-2.5-0.5c-0.8,0-1.6,0.2-2.4,0.5c-0.7,0.3-1.4,0.8-2,1.3c-0.6,0.6-1,1.3-1.4,2
			c-0.3,0.8-0.5,1.6-0.5,2.5c0,0.8,0.2,1.6,0.5,2.4c0.3,0.7,0.8,1.4,1.3,2c0.6,0.6,1.2,1.1,2,1.4C50.7,295.2,51.5,295.3,52.4,295.3
			L52.4,295.3z M47,299.1h10.7v2.6H47L47,299.1z"/>
		<path class="st7" d="M73.1,280.4V297c0,0.6-0.1,1.2-0.4,1.8c-0.5,1.1-1.4,2-2.5,2.5c-0.6,0.3-1.2,0.4-1.8,0.4h-0.2
			c-0.6,0-1.2-0.1-1.8-0.4c-1.1-0.5-2-1.4-2.5-2.5c-0.3-0.6-0.4-1.2-0.4-1.8v-16.5h2.6V297c0,0.6,0.2,1.1,0.6,1.5
			c0.4,0.4,0.9,0.6,1.5,0.6h0.2c0.6,0,1.1-0.2,1.5-0.6c0.4-0.4,0.6-0.9,0.6-1.5v-16.5H73.1z"/>
		<path class="st7" d="M82,283.1h-2v18.6h-2.6v-18.6h-2v-2.6H82L82,283.1z"/>
	</g>
	<polygon class="st8" points="187,417.1 129.7,524.8 21.3,400.3 0,264.9 95.8,264.9 	"/>
</g>
<g id="Gallery">
	<g id="text-2">
		<path class="st7" d="M151.1,72.4v15l-0.9,0.3l0,0c-0.8,0.3-1.6,0.6-2.5,0.7c-0.9,0.1-1.7,0.2-2.6,0.2c-0.5,0-1.1,0-1.6-0.1
			c-0.5-0.1-1.1-0.1-1.6-0.2c-1.9-0.4-3.6-1.2-5.1-2.3c-0.7-0.5-1.4-1.1-2-1.8c-0.6-0.7-1.2-1.4-1.7-2.2c-0.5-0.8-0.9-1.6-1.3-2.5
			c-0.3-0.8-0.6-1.7-0.7-2.6c-0.2-0.8-0.2-1.6-0.2-2.5c0-0.5,0-1.1,0.1-1.6c0.1-0.5,0.2-1.1,0.3-1.6c0.4-1.9,1.2-3.6,2.3-5.2
			c1.1-1.5,2.4-2.8,4-3.7c0.8-0.5,1.6-0.9,2.5-1.2c0.8-0.3,1.7-0.6,2.6-0.7c0.4-0.1,0.8-0.1,1.2-0.2c0.4,0,0.9,0,1.3,0
			c1.1,0,2.1,0.1,3.2,0.3c1,0.3,1.9,0.6,2.8,1l-1,2.5c-0.4-0.2-0.9-0.4-1.4-0.5l-1-0.3c-0.8-0.2-1.7-0.3-2.6-0.3c-0.3,0-0.6,0-1,0
			c-0.3,0-0.7,0.1-1,0.2c-0.7,0.1-1.5,0.3-2.2,0.6c-0.7,0.3-1.4,0.6-2,1c-1.3,0.8-2.4,1.8-3.3,3c-0.4,0.6-0.8,1.3-1.1,2
			c-0.3,0.7-0.6,1.4-0.8,2.2c-0.1,0.4-0.2,0.9-0.2,1.3c0,0.4-0.1,0.8-0.1,1.3c0,0.3,0,0.7,0,1c0,0.3,0.1,0.7,0.2,1
			c0.2,1.5,0.8,2.9,1.6,4.2c0.8,1.3,1.8,2.4,3.1,3.2c1.3,0.9,2.7,1.5,4.2,1.9c0.4,0.1,0.9,0.2,1.3,0.2c0.4,0,0.8,0.1,1.3,0.1
			c1.1,0,2.2-0.1,3.3-0.5V72.4H151.1z"/>
		<path class="st7" d="M164.9,85.7h-2.6l-1.1-4.9l-2,0.8l-2.1-0.8c-0.2,0.8-0.3,1.6-0.5,2.5l-0.6,2.4h-2.7l4.7-21.2h2.5L164.9,85.7z
			 M160.6,78.2c-0.2-0.7-0.3-1.3-0.4-1.9l-0.3-1.6l-0.3-1.6l-0.4-2c-0.3,1.2-0.5,2.4-0.8,3.5s-0.5,2.3-0.8,3.5
			c0.3,0.1,0.5,0.2,0.8,0.3c0.3,0.1,0.5,0.2,0.8,0.3L160.6,78.2z"/>
		<path class="st7" d="M179.5,85.4c-0.6,0.7-1.4,1.3-2.2,1.8c-0.6,0.3-1.3,0.5-2,0.5c-0.6,0-1.2-0.1-1.8-0.3
			c-0.6-0.2-1.1-0.4-1.8-0.6c-0.6-0.2-1.3-0.5-2.1-0.7c-0.9-0.2-1.8-0.4-2.7-0.3V64h2.6v19c0.5,0.1,0.9,0.2,1.4,0.4
			c0.5,0.2,0.9,0.4,1.3,0.6l0,0l1.4,0.6c0.4,0.2,0.9,0.3,1.3,0.3c0.4,0,0.8-0.1,1.1-0.3c0.5-0.3,1-0.6,1.5-1.1L179.5,85.4z
			 M178.7,82.4h-6.8V64h2.6v15.8h4.1L178.7,82.4z"/>
		<path class="st7" d="M198.5,65.1c0.9,0.4,1.8,1,2.5,1.7c0.7,0.7,1.3,1.6,1.7,2.5c0.4,1,0.6,2,0.6,3.1v0.1c0,0.9-0.1,1.8-0.4,2.6
			c-0.3,0.8-0.7,1.6-1.2,2.2c-0.5,0.7-1.1,1.2-1.8,1.7c-0.7,0.5-1.5,0.8-2.3,1.1l2,5.5h-2.8l-2-5.2h-1.6v5.2h-2.6v-18h2.6v10.2h2.1
			c0.7,0,1.4-0.1,2-0.4c0.6-0.3,1.2-0.7,1.7-1.1c0.5-0.5,0.9-1.1,1.2-1.7c0.3-0.7,0.5-1.4,0.5-2.1v-0.1c0-0.7-0.1-1.4-0.4-2
			c-0.2-0.7-0.6-1.3-1.1-1.8c-0.5-0.5-1.1-0.9-1.7-1.2c-0.7-0.3-1.4-0.4-2.1-0.4h-11.1v10.8h2.4v2.6h-2.4v2.7h4v2.6h-6.6V64.4h13.8
			C196.5,64.4,197.5,64.7,198.5,65.1z"/>
		<path class="st7" d="M215.3,64.4l-3.7,10.8v10.4H209V75.3l-3.7-10.8h2.8l2.3,6.6l2.3-6.6H215.3z"/>
	</g>
	<polygon class="st8" points="236.1,317 181.3,415.2 145.4,212 116.9,60.1 164.9,47.9 225.9,60 	"/>
</g>
<g id="Shop">
	<g id="text-3">
		<path class="st7" d="M233.7,47.9c-0.9,0-1.8-0.1-2.7-0.3c-0.8-0.2-1.6-0.6-2.4-1c-0.6-0.3-1.1-0.7-1.7-1.1c-0.5-0.4-1-0.9-1.4-1.4
			c-0.8-1-1.5-2.2-1.9-3.5c-0.2-0.5-0.3-1-0.4-1.5c-0.1-0.5-0.1-1-0.1-1.5c0-0.2,0-0.4,0-0.5s0-0.3,0-0.5c0.1-0.7,0.3-1.5,0.5-2.2
			c0.2-0.7,0.5-1.4,0.9-2c0.4-0.6,0.9-1.2,1.4-1.8c0.6-0.6,1.2-1.2,1.9-1.7l1.6,2.2c-0.5,0.4-1,0.8-1.5,1.3
			c-0.4,0.4-0.7,0.8-1.1,1.3c-0.6,1-0.9,2-1,3.2c0,0.2,0,0.3,0,0.5s0,0.3,0,0.4c0,0.9,0.2,1.7,0.5,2.5c0.3,0.8,0.7,1.6,1.3,2.2
			c0.6,0.8,1.4,1.5,2.3,2c0.9,0.5,1.9,0.8,2.9,0.9h0.4h0.4c0.9,0,1.8-0.2,2.6-0.5c0.8-0.3,1.6-0.7,2.3-1.3c1.6-1.3,2.6-3.2,2.8-5.2
			c0-0.2,0-0.3,0-0.4s0-0.3,0-0.4c0-0.7-0.1-1.4-0.3-2.1l0,0c-0.3-0.8-0.7-1.6-1.3-2.3c-0.6-0.7-1.3-1.4-2.1-2
			c-0.8-0.6-1.6-1.2-2.4-1.8c-0.7-0.4-1.3-0.9-1.9-1.4c-0.6-0.4-1.1-0.9-1.6-1.5c-0.6-0.6-1-1.3-1.3-2c-0.2-0.7-0.3-1.4-0.3-2.1
			c0.1-0.6,0.3-1.3,0.6-1.8c0.6-1.1,1.7-2,2.9-2.4c0.6-0.2,1.3-0.3,1.9-0.2c0.7,0.1,1.3,0.3,1.9,0.6c0.6,0.3,1.1,0.8,1.5,1.3
			c0.8,1.2,1.2,2.6,1.1,4l-2.6-0.3c0.1-0.7-0.1-1.4-0.5-2c-0.5-0.8-1.6-1.2-2.5-0.9c-0.3,0.1-0.5,0.2-0.8,0.4
			c-0.2,0.2-0.4,0.4-0.6,0.7c-0.2,0.3-0.3,0.6-0.3,0.9c0,0.8,0.3,1.5,0.9,2c0.4,0.4,0.9,0.8,1.4,1.2l1.8,1.2
			c0.8,0.6,1.6,1.2,2.5,1.8c0.9,0.7,1.6,1.4,2.3,2.2c0.7,0.8,1.3,1.8,1.7,2.8c0.5,1.1,0.7,2.3,0.7,3.5v0.5c0,0.2,0,0.4,0,0.6
			c-0.1,0.7-0.2,1.3-0.4,2c-0.2,0.7-0.5,1.3-0.8,1.9c-0.3,0.6-0.7,1.1-1.2,1.6c-0.4,0.5-0.9,1-1.4,1.4c-0.9,0.8-2,1.4-3.1,1.8
			C236,47.7,234.9,47.9,233.7,47.9z"/>
		<path class="st7" d="M256.1,23.7v21.3h-2.6v-5l-2.2,0.9l-2.3-0.9v5h-2.6V23.7h2.6v13.5l1.1,0.4l1.1,0.4l1.1-0.4l1.1-0.4V23.7
			H256.1z"/>
		<path class="st7" d="M267,23.4c1.1,0,2.3,0.2,3.3,0.7c1.1,0.4,2,1.1,2.8,1.9c0.8,0.8,1.5,1.8,2,2.8c1,2.2,1,4.7,0.1,6.8
			c-0.4,1.1-1.1,2-1.9,2.8c-0.8,0.8-1.8,1.5-2.8,2c-2.2,1-4.7,1-6.9,0.1c-1.1-0.4-2-1.1-2.9-1.8c-0.8-0.8-1.5-1.8-2-2.8
			c-1-2.2-1-4.7-0.1-6.9c0.4-1.1,1.1-2,1.9-2.8c0.8-0.8,1.8-1.5,2.8-2C264.6,23.6,265.8,23.4,267,23.4z M267,38.6
			c0.8,0,1.6-0.2,2.4-0.5c0.7-0.3,1.4-0.8,2-1.3c0.6-0.6,1.1-1.3,1.4-2c0.7-1.5,0.7-3.3,0-4.9c-0.3-0.7-0.8-1.4-1.4-2
			c-0.6-0.6-1.3-1-2-1.4c-0.8-0.3-1.6-0.5-2.5-0.5c-0.8,0-1.6,0.2-2.4,0.5c-0.7,0.3-1.4,0.8-2,1.3c-0.6,0.6-1.1,1.2-1.4,2
			c-0.3,0.8-0.5,1.6-0.5,2.5c0,0.8,0.2,1.6,0.5,2.4c0.3,0.7,0.8,1.4,1.3,2c0.6,0.6,1.2,1.1,2,1.4C265.3,38.4,266.1,38.6,267,38.6
			L267,38.6z M261.7,42.3h10.7v2.6h-10.7V42.3z"/>
		<path class="st7" d="M282.9,23.7c1.1,0,2.1,0.2,3.1,0.6c0.9,0.4,1.8,1,2.5,1.7c0.7,0.7,1.3,1.6,1.7,2.5c0.4,1,0.7,2.1,0.6,3.1v0.1
			c0,1.1-0.2,2.1-0.6,3.1c-0.4,0.9-1,1.8-1.7,2.5c-0.7,0.7-1.6,1.3-2.5,1.7c-1,0.4-2,0.6-3.1,0.6h-2.1V45h-2.6V23.7H282.9z
			 M288.3,31.7c0-0.7-0.1-1.4-0.4-2c-0.3-0.6-0.7-1.2-1.2-1.7c-0.5-0.5-1.1-0.9-1.7-1.2c-0.7-0.3-1.4-0.4-2.1-0.4h-2.1v10.8h2.1
			c0.7,0,1.4-0.1,2-0.4c0.6-0.3,1.2-0.7,1.7-1.1c0.5-0.5,0.9-1.1,1.2-1.7c0.3-0.7,0.5-1.4,0.5-2.1L288.3,31.7z"/>
	</g>
	<polygon class="st8" points="283.1,327.8 236.1,330.6 233.6,168.4 233.6,64 205.7,27.3 252.3,0 303.3,27.3 275.9,67.4 	"/>
</g>
<g id="Contact">
	<g id="text-4">
		<path class="st7" d="M309.5,88.7c-2.1,0-4.1-0.3-6-1.1c-1.7-0.7-3.2-1.8-4.5-3.1c-0.7-0.7-1.2-1.4-1.8-2.1c-0.5-0.8-1-1.6-1.3-2.4
			c-0.7-1.8-1.1-3.7-1.1-5.6c0-1,0.1-1.9,0.3-2.9c0.2-0.9,0.5-1.8,0.8-2.7c0.4-0.8,0.8-1.6,1.3-2.4c0.5-0.8,1.1-1.5,1.8-2.1
			c0.6-0.6,1.4-1.2,2.1-1.7c0.8-0.5,1.5-0.9,2.4-1.3c0.9-0.4,1.8-0.7,2.7-0.8c0.9-0.2,1.9-0.3,2.9-0.3c1.2,0,2.4,0.2,3.5,0.5
			c1.2,0.4,2.3,0.9,3.4,1.5l-1.3,2.3c-0.9-0.5-1.8-1-2.8-1.3c-0.9-0.3-1.9-0.4-2.8-0.4c-0.8,0-1.6,0.1-2.3,0.2
			c-0.8,0.2-1.5,0.4-2.2,0.7c-1.4,0.6-2.6,1.4-3.7,2.5c-0.6,0.5-1,1.1-1.5,1.7c-0.4,0.6-0.7,1.3-1,2c-0.6,1.4-0.9,3-0.9,4.5
			c0,1.5,0.3,3.1,0.9,4.5c0.6,1.4,1.4,2.7,2.5,3.7c0.5,0.5,1.1,1,1.7,1.4c0.6,0.4,1.3,0.8,2,1.1c1.6,0.6,3.3,0.9,5,0.9L309.5,88.7z"
			/>
		<path class="st7" d="M320.4,67.2c1.1,0,2.3,0.2,3.3,0.7c1,0.4,2,1.1,2.8,1.8c0.8,0.8,1.5,1.8,2,2.8c1,2.2,1,4.7,0.1,6.8
			c-0.4,1.1-1.1,2-1.9,2.8c-0.8,0.8-1.8,1.5-2.8,2c-2.2,1-4.7,1-6.9,0.1c-1.1-0.4-2-1.1-2.9-1.9c-0.8-0.8-1.5-1.8-2-2.8
			c-1-2.2-1-4.7-0.1-6.9c0.4-1.1,1.1-2,1.9-2.8c0.8-0.8,1.8-1.5,2.8-2C318,67.4,319.2,67.1,320.4,67.2z M320.4,82.3
			c0.8,0,1.6-0.2,2.4-0.5c0.7-0.3,1.4-0.8,2-1.3c0.6-0.6,1.1-1.3,1.4-2c0.7-1.5,0.7-3.3,0-4.8c-0.3-0.7-0.8-1.4-1.3-2
			c-0.6-0.6-1.3-1-2-1.4c-0.8-0.3-1.6-0.5-2.5-0.5c-0.8,0-1.6,0.2-2.4,0.5c-0.7,0.3-1.4,0.8-2,1.3c-0.6,0.6-1.1,1.2-1.4,2
			c-0.3,0.8-0.5,1.6-0.5,2.5c0,0.8,0.2,1.6,0.5,2.4c0.3,0.7,0.8,1.4,1.3,2c0.6,0.6,1.2,1.1,2,1.4C318.7,82.2,319.6,82.4,320.4,82.3
			L320.4,82.3z M315.1,86.1h10.7v2.6h-10.7L315.1,86.1z"/>
		<path class="st7" d="M341.1,67.4v21.2h-2.6V72.4l-4.4-1.9v18.2h-2.6V67.4h2.3l4.7,2.1v-2.1H341.1z"/>
		<path class="st7" d="M360.9,70.1h-12.3v18.6H346V70.1h-2v-2.6h16.9V70.1z M360.7,88.7H358l-0.4-1.9h-4.1l-0.4,1.9h-2.7l3.9-18h2.5
			L360.7,88.7z M357,84.2l-1.4-6.9c-0.3,1.2-0.5,2.3-0.7,3.4c-0.2,1.1-0.5,2.2-0.8,3.5L357,84.2z"/>
		<path class="st7" d="M373.9,88.7c-1.5,0-3-0.3-4.5-0.8c-1.3-0.5-2.6-1.3-3.7-2.2c-1-1-1.9-2.1-2.5-3.4c-0.6-1.3-0.9-2.8-0.9-4.3
			c0-1.5,0.3-2.9,0.9-4.2c0.6-1.3,1.4-2.4,2.5-3.3c1.1-1,2.3-1.7,3.7-2.2c1.4-0.5,2.9-0.8,4.5-0.8V70c-1.1,0-2.3,0.2-3.3,0.6
			c-1,0.4-2,0.9-2.8,1.6c-0.8,0.7-1.5,1.5-2,2.5c-0.5,1-0.8,2.1-0.7,3.2c0,1.1,0.2,2.1,0.7,3.1c0.5,1,1.1,1.9,1.9,2.6
			c0.8,0.8,1.8,1.4,2.8,1.8c1.1,0.4,2.3,0.7,3.5,0.7L373.9,88.7z"/>
		<path class="st7" d="M383.1,70.1h-2v18.6h-2.6V70.1h-2v-2.6h6.6L383.1,70.1z"/>
	</g>
	<polygon class="st8" points="339.8,346 283.1,322.5 290.3,100 290.3,53 402.6,56 384.3,111.7 	"/>
</g>
<g id="Blog">
	<g id="text-5">
		<path class="st7" d="M476.9,239.3c0.6,1.5,0.9,3,0.9,4.6c0,1.6-0.3,3.2-0.9,4.7c-0.6,1.4-1.5,2.7-2.6,3.7c-1.1,1.1-2.4,2-3.8,2.6
			c-3,1.2-6.3,1.2-9.3,0c-0.7-0.3-1.4-0.7-2-1.1c-0.6-0.4-1.2-0.9-1.8-1.5c-0.6-0.5-1-1.1-1.5-1.8c-0.4-0.6-0.8-1.3-1.1-2
			c-0.3-0.7-0.5-1.5-0.7-2.3c-0.2-0.8-0.2-1.6-0.2-2.4c0-1.2,0.2-2.5,0.6-3.6c0.4-1.2,1-2.4,1.8-3.5l2.2,1.5
			c-1.2,1.6-1.9,3.6-1.9,5.6c0,1.2,0.2,2.4,0.7,3.5c0.5,1.1,1.1,2.1,2,3c3.6,3.6,9.4,3.7,13,0.1c0,0,0.1-0.1,0.1-0.1
			c0.9-0.8,1.6-1.9,2-3c0.9-2.3,0.9-4.8,0-7.1c-0.5-1.1-1.1-2.1-2-3c-0.8-0.8-1.8-1.4-2.8-1.9c-1-0.5-2.2-0.7-3.3-0.8h-1.8v17.1
			h-2.6v-22.1h2.7v2.4h3.2c0.4,0,0.7-0.1,1-0.4c0.3-0.3,0.4-0.6,0.4-1c0-0.7-0.6-1.3-1.3-1.4c0,0,0,0-0.1,0h-7.7v-2.7h7.7
			c0.5,0,1.1,0.1,1.6,0.3c1.9,0.9,2.9,3.1,2.2,5.1c-0.1,0.4-0.3,0.8-0.6,1.1c1.3,0.6,2.4,1.4,3.4,2.4
			C475.5,236.6,476.4,237.8,476.9,239.3L476.9,239.3z"/>
		<path class="st7" d="M503.6,250.5c-0.7,0.7-1.5,1.3-2.3,1.9c-0.6,0.4-1.3,0.8-2,1.1c-0.6,0.2-1.2,0.4-1.9,0.6
			c-0.6,0.1-1.2,0.2-1.8,0.2c-0.5,0-1.1,0-1.6-0.1c-0.5-0.1-1.1-0.2-1.6-0.4l0,0c-1-0.3-2-0.6-3-0.9l0,0c-0.3-0.1-0.7-0.3-1.1-0.4
			l-1.1-0.4c-0.3-0.1-0.6-0.2-1-0.3l-1.1-0.2c-0.6-0.1-1.2-0.2-1.8-0.2c-0.5,0-1,0.1-1.5,0.2c-0.5,0.1-1.1,0.2-1.8,0.4v-21.5h2.6
			v18.3h0.6c0.4,0,0.7,0,1.1,0c0.4,0,0.8,0.1,1.2,0.2l1.2,0.2c0.4,0.1,0.8,0.2,1.2,0.4l2.2,0.8l1.4,0.5c0.5,0.2,0.9,0.3,1.4,0.4
			c0.4,0.2,0.9,0.3,1.3,0.3c0.5,0,0.9,0,1.4,0c1,0,2-0.3,2.8-0.7c0.5-0.3,1-0.6,1.5-0.9c0.5-0.4,1.1-0.9,1.8-1.5L503.6,250.5z
			 M503.6,239.4c0,1.1-0.3,2.3-0.8,3.3c-0.4,1.1-1.1,2-1.9,2.9c-0.8,0.8-1.8,1.5-2.8,2c-2.2,1-4.7,1-6.8,0.1c-1.1-0.4-2-1.1-2.8-1.9
			c-0.8-0.8-1.5-1.8-2-2.8c-1-2.2-1-4.7-0.1-6.9c0.9-2.1,2.6-3.9,4.7-4.8c1.1-0.5,2.3-0.8,3.5-0.8c1.1,0,2.3,0.2,3.3,0.7
			c2.1,0.9,3.9,2.6,4.8,4.7C503.3,236.9,503.6,238.2,503.6,239.4L503.6,239.4z M501,239.4c0-0.8-0.2-1.6-0.5-2.4
			c-0.3-0.7-0.8-1.4-1.3-2c-0.6-0.6-1.2-1.1-2-1.4c-0.8-0.3-1.6-0.5-2.5-0.5c-0.8,0-1.6,0.2-2.4,0.5c-0.7,0.3-1.4,0.8-2,1.3
			c-0.6,0.6-1,1.3-1.4,2c-0.3,0.8-0.5,1.6-0.5,2.5c0,0.8,0.2,1.6,0.5,2.4c0.3,0.7,0.8,1.4,1.3,2c0.6,0.6,1.2,1.1,2,1.4
			c0.8,0.3,1.6,0.5,2.5,0.5c0.8,0,1.6-0.2,2.4-0.5c0.7-0.3,1.4-0.8,2-1.3c0.6-0.6,1.1-1.3,1.4-2C500.9,241.1,501,240.2,501,239.4
			L501,239.4z"/>
		<path class="st7" d="M513.8,233.7c-1,0.4-2,0.9-2.8,1.6c-0.8,0.7-1.5,1.6-1.9,2.5c-0.5,1-0.7,2.1-0.7,3.2c0,0.9,0.2,1.8,0.5,2.7
			c0.3,0.8,0.7,1.6,1.3,2.3c0.6,0.7,1.2,1.3,2,1.8c0.8,0.5,1.6,0.9,2.5,1.1v-5h2.6v7.9c-1.5,0-3.1-0.3-4.5-0.8
			c-1.3-0.5-2.6-1.3-3.7-2.2c-1-1-1.9-2.1-2.5-3.4c-1.2-2.7-1.2-5.8,0-8.5c0.6-1.3,1.4-2.4,2.5-3.3c1.1-1,2.3-1.7,3.7-2.2
			c1.4-0.5,3-0.8,4.5-0.8v2.6C516,233.1,514.9,233.3,513.8,233.7z"/>
	</g>
	<polygon class="st8" points="379.7,373.1 339.8,346 375.2,213.4 411.3,190.5 434.1,216.9 525,219.8 528.3,264.9 421.6,261.8 	"/>
</g>
<g id="String">
	<path class="st9" d="M363.3,297.2c-11-0.2-19.4-4.9-26.2-14.5c-1.8-2.5-3.3-5.2-4.6-8c-1.9-5.5-3.6-11.3-5.2-16.9
		c-2.8-9.7-5.7-19.8-10.2-29.4c-4.5-8.7-12.8-14.8-22.4-16.5c-6.4-1.1-13,0.6-18,4.7v5.2c0.3-0.1,0.6-0.3,0.8-0.5
		c4.3-4.5,10.5-6.5,16.6-5.4c8.4,1.5,15.5,6.8,19.4,14.3c4.3,9.3,7.2,19.2,9.9,28.8c1.6,5.7,3.3,11.5,5.3,17.2l0.1,0.2
		c1.4,3,3.1,5.9,5,8.6c7.2,10.3,16.5,15.6,28.2,16.2L363.3,297.2z"/>
	<path class="st9" d="M468.2,301c-0.1-0.1-0.1-0.3-0.2-0.4c-2.8-5.9-7.2-11-12.5-14.8c-17.2-12-40.5-6.9-56.2,3.3l-1.1,5.6
		c0.1,0,0.2-0.1,0.3-0.2c14.6-10.9,38-17.2,54.8-5.5c4.8,3.4,8.7,8,11.3,13.3c0,0,0.1,0.1,0.1,0.1c4.7,12.7-1.7,26.8-14.3,31.6
		c-10,3.8-21.1-1.2-24.9-11.2c-3-7.7,0.9-16.4,8.7-19.4c0,0,0,0,0.1,0c6-2.3,12.7,0.7,15,6.8c1.7,4.6-0.6,9.7-5.1,11.5
		c-3.5,1.3-7.4-0.4-8.7-3.9c0,0,0,0,0,0c-1-2.6,0.3-5.4,2.9-6.4c1.8-0.7,3.9,0.2,4.6,2.1c0,0,0,0,0,0c0.5,1.3-0.2,2.7-1.4,3.2
		c-0.8,0.3-1.7-0.1-2-0.9c-0.4-1-1.5-1.6-2.6-1.2c-1,0.4-1.6,1.5-1.2,2.6c1.1,2.9,4.3,4.3,7.2,3.2c3.3-1.3,5-5,3.8-8.3
		c-1.5-3.9-5.9-5.9-9.8-4.4c-4.6,1.8-6.9,6.9-5.2,11.6c2.1,5.5,8.3,8.3,13.8,6.2c6.7-2.5,10-10,7.5-16.6
		c-3.1-8.1-12.1-12.1-20.1-9.1c-9.8,3.8-14.7,14.7-11,24.5c4.6,12,18,18.1,30,13.5C466.4,332.2,473.8,315.7,468.2,301z"/>
	<path class="st9" d="M198.3,303.6c-9.7,7.8-21.4,12.8-33.7,14.4c-17.5,2.2-34.2-2.8-45.9-13.8c-0.8-0.8-2-0.8-2.8,0
		c-0.8,0.8-0.8,2,0,2.8c0,0,0.1,0.1,0.1,0.1c10.6,10,25,15.4,40.5,15.4c2.9,0,5.8-0.2,8.6-0.5c12.6-1.6,24.5-6.5,34.5-14.2
		C198.9,306.4,198.5,305,198.3,303.6z"/>
	<path class="st9" d="M235.3,238.5l-9.4,21.8v0.1c-2.9,7.9-6.5,15.6-10.8,22.8c-1.2,2-2.6,4-3.9,5.9l-0.1,0.1
		c-2.8,4.4-6.2,8.5-10.1,12c0.1,1.6,0.4,3.1,0.9,4.5c4.9-4.1,9.1-9,12.6-14.4c1.4-1.9,2.7-4,4-6.1c4.4-7.4,8.2-15.3,11.1-23.4
		l5.9-13.8l0.4-10.9C235.7,237.6,235.5,238,235.3,238.5z"/>
</g>
</svg>
